<svg id="svg" version="1.1" xmlns="http://www.w3.org/2000/svg" xmlns:xlink="http://www.w3.org/1999/xlink" width="400" height="267.1875" viewBox="0, 0, 400,267.1875"><g id="svgg"><path id="path0" d="M188.506 22.200 C 187.480 22.800,186.039 23.624,185.304 24.031 C 183.395 25.089,182.075 25.837,180.094 26.987 C 177.764 28.339,165.307 35.449,163.794 36.289 C 163.133 36.657,160.247 38.301,157.381 39.943 C 154.516 41.586,151.570 43.263,150.835 43.672 C 150.100 44.080,148.717 44.869,147.762 45.424 C 146.807 45.979,145.574 46.687,145.023 46.997 C 142.869 48.211,141.848 48.792,137.074 51.520 C 134.355 53.073,131.790 54.531,131.374 54.761 C 130.958 54.990,130.414 55.297,130.164 55.444 C 129.915 55.591,128.452 56.423,126.913 57.292 C 118.681 61.942,119.329 61.055,119.222 67.806 C 119.128 73.708,119.353 74.869,120.749 75.694 C 121.987 76.425,124.416 76.091,125.317 75.065 C 125.391 74.981,127.120 73.959,129.160 72.793 C 131.199 71.628,133.183 70.483,133.568 70.249 C 134.836 69.479,145.409 63.423,146.737 62.706 C 147.871 62.094,152.119 59.662,156.251 57.260 C 158.347 56.041,160.119 55.043,160.187 55.043 C 160.255 55.043,161.065 54.584,161.986 54.022 C 162.907 53.461,164.502 52.540,165.531 51.977 C 166.560 51.414,169.773 49.589,172.672 47.921 C 175.570 46.254,178.055 44.890,178.194 44.890 C 178.332 44.890,178.486 44.785,178.535 44.658 C 178.584 44.530,178.894 44.342,179.225 44.239 L 179.826 44.052 179.826 107.114 C 179.826 141.798,179.736 170.231,179.626 170.300 C 179.515 170.368,178.583 169.940,177.555 169.349 C 176.526 168.757,174.482 167.584,173.013 166.742 C 171.543 165.899,169.042 164.465,167.455 163.554 C 165.867 162.644,164.124 161.650,163.580 161.346 C 163.037 161.042,158.684 158.562,153.908 155.836 C 149.132 153.110,144.560 150.509,143.749 150.056 C 142.938 149.603,140.382 148.157,138.071 146.842 L 133.868 144.453 133.868 123.654 C 133.868 97.420,134.692 100.067,126.520 100.067 C 118.300 100.067,119.172 96.859,119.172 127.112 C 119.173 156.076,118.486 152.308,124.382 155.693 C 128.558 158.090,133.950 161.200,135.053 161.847 C 135.356 162.025,135.785 162.257,136.005 162.364 C 136.554 162.629,148.332 169.344,148.831 169.677 C 149.051 169.823,149.408 170.025,149.622 170.125 C 149.837 170.226,152.663 171.828,155.902 173.686 C 159.140 175.544,162.331 177.366,162.993 177.735 C 166.500 179.691,168.815 181.028,169.461 181.469 C 169.860 181.741,170.246 181.964,170.320 181.964 C 170.393 181.964,172.893 183.364,175.875 185.076 C 178.856 186.788,181.897 188.514,182.632 188.912 C 183.367 189.310,185.230 190.401,186.774 191.336 C 190.070 193.334,192.263 193.694,193.513 192.444 L 194.122 191.836 194.190 107.695 C 194.234 53.239,194.165 23.312,193.996 22.866 C 193.266 20.947,191.100 20.684,188.506 22.200 " stroke="none" fill="#2cbbe1" fill-rule="evenodd"></path><path id="path1" d="M206.386 22.017 L 205.478 22.926 205.478 107.001 C 205.478 199.460,205.342 192.154,207.072 193.048 C 208.575 193.825,209.377 193.588,213.894 191.026 C 216.246 189.693,218.651 188.330,219.238 187.997 C 219.826 187.664,226.379 183.930,233.801 179.698 C 241.222 175.466,254.148 168.098,262.525 163.324 C 270.902 158.551,278.267 154.329,278.891 153.942 C 280.916 152.690,280.828 153.545,280.827 135.030 C 280.826 114.211,281.516 115.965,273.329 115.965 C 265.555 115.965,266.132 114.749,266.132 131.129 C 266.132 142.997,266.098 143.968,265.665 144.341 C 265.407 144.562,262.131 146.489,258.383 148.623 C 254.636 150.757,245.498 155.958,238.076 160.181 C 230.655 164.404,223.687 168.380,222.592 169.016 C 221.497 169.652,220.505 170.113,220.387 170.040 C 220.078 169.849,220.115 44.355,220.424 44.355 C 220.561 44.355,223.657 46.056,227.304 48.135 C 241.809 56.405,262.603 68.245,263.929 68.991 C 266.342 70.347,266.132 68.865,266.132 84.552 C 266.132 102.083,265.519 100.735,273.498 100.735 C 278.475 100.735,279.424 100.496,280.324 99.019 C 281.110 97.731,281.103 63.113,280.317 61.824 C 279.842 61.044,279.197 60.636,272.144 56.649 C 271.703 56.400,268.337 54.474,264.663 52.370 C 260.989 50.265,257.321 48.181,256.513 47.738 C 255.705 47.295,254.290 46.473,253.369 45.911 C 252.448 45.349,251.647 44.890,251.590 44.890 C 251.533 44.890,248.379 43.108,244.581 40.929 C 206.355 19.006,208.390 20.013,206.386 22.017 " stroke="none" fill="#fafafa" fill-rule="evenodd"></path><path id="path2" d="M196.126 0.380 C 195.758 0.599,195.199 0.897,194.882 1.041 C 194.566 1.185,194.228 1.431,194.132 1.587 C 194.035 1.743,193.732 1.870,193.457 1.870 C 193.182 1.870,192.798 2.022,192.604 2.208 C 192.410 2.393,191.921 2.691,191.516 2.870 C 191.112 3.049,190.782 3.318,190.782 3.468 C 190.782 3.618,190.585 3.741,190.346 3.741 C 189.941 3.741,188.145 4.703,187.842 5.082 C 187.652 5.320,186.682 5.705,186.420 5.647 C 186.299 5.620,186.276 5.723,186.371 5.875 C 186.469 6.033,186.193 6.222,185.727 6.315 C 185.279 6.405,184.977 6.583,185.057 6.713 C 185.137 6.842,184.967 6.947,184.680 6.947 C 184.393 6.947,184.095 7.112,184.018 7.314 C 183.941 7.515,183.557 7.760,183.166 7.859 C 182.775 7.957,181.850 8.453,181.111 8.962 C 180.371 9.470,179.599 9.886,179.396 9.886 C 179.192 9.886,179.025 10.007,179.025 10.154 C 179.025 10.301,178.874 10.424,178.691 10.427 C 178.507 10.430,178.056 10.668,177.689 10.955 C 177.321 11.243,176.803 11.480,176.537 11.484 C 176.271 11.487,176.122 11.600,176.206 11.735 C 176.289 11.870,175.995 12.060,175.551 12.158 C 175.108 12.255,174.813 12.445,174.897 12.580 C 174.980 12.715,174.859 12.826,174.628 12.826 C 174.214 12.826,173.140 13.337,172.879 13.658 C 172.806 13.748,172.473 13.907,172.140 14.011 C 171.801 14.117,171.614 14.327,171.714 14.489 C 171.812 14.648,171.774 14.705,171.628 14.615 C 171.482 14.525,171.074 14.657,170.721 14.908 C 170.126 15.332,168.302 16.358,166.733 17.153 C 166.366 17.339,166.005 17.563,165.932 17.651 C 165.858 17.739,165.438 17.990,164.997 18.208 C 163.862 18.771,162.882 19.344,162.725 19.536 C 162.652 19.627,162.321 19.785,161.991 19.888 C 161.660 19.992,161.389 20.175,161.389 20.296 C 161.389 20.417,161.084 20.593,160.711 20.687 C 160.337 20.781,160.104 20.974,160.192 21.117 C 160.280 21.259,160.190 21.376,159.992 21.376 C 159.614 21.376,157.853 22.216,157.302 22.658 C 157.125 22.801,156.319 23.257,155.511 23.672 C 154.703 24.087,153.572 24.762,152.999 25.172 C 152.426 25.583,151.728 25.919,151.447 25.919 C 151.167 25.919,151.011 26.039,151.102 26.186 C 151.249 26.424,151.063 26.502,150.525 26.429 C 150.428 26.416,150.247 26.587,150.123 26.809 C 149.998 27.031,149.537 27.292,149.097 27.388 C 148.657 27.485,148.297 27.675,148.297 27.810 C 148.297 27.945,148.168 28.056,148.011 28.056 C 147.854 28.056,147.192 28.423,146.541 28.871 C 145.890 29.318,145.357 29.620,145.357 29.541 C 145.357 29.462,144.773 29.757,144.059 30.196 C 143.344 30.636,142.616 30.995,142.440 30.995 C 142.264 30.995,142.188 31.107,142.273 31.243 C 142.420 31.481,141.429 31.959,141.015 31.850 C 140.905 31.821,140.815 31.917,140.815 32.064 C 140.815 32.211,140.635 32.331,140.414 32.331 C 140.194 32.331,140.013 32.455,140.013 32.605 C 140.013 32.756,139.683 32.999,139.279 33.147 C 138.090 33.579,136.807 34.306,136.807 34.545 C 136.807 34.668,136.687 34.693,136.540 34.603 C 136.393 34.512,136.273 34.565,136.273 34.720 C 136.273 34.876,136.101 35.003,135.891 35.003 C 135.681 35.003,135.333 35.179,135.118 35.395 C 134.903 35.610,134.573 35.820,134.386 35.862 C 134.199 35.904,133.825 36.149,133.556 36.406 C 133.287 36.663,132.819 36.874,132.516 36.874 C 132.213 36.874,132.040 36.994,132.131 37.141 C 132.222 37.288,132.123 37.408,131.912 37.408 C 131.701 37.408,131.379 37.589,131.196 37.809 C 131.013 38.029,130.643 38.210,130.375 38.210 C 130.106 38.210,129.769 38.420,129.625 38.677 C 129.481 38.935,129.297 39.125,129.217 39.102 C 128.894 39.006,127.989 39.356,127.989 39.577 C 127.989 39.707,127.899 39.792,127.789 39.766 C 127.410 39.678,126.136 40.426,126.277 40.654 C 126.354 40.779,126.210 40.882,125.955 40.882 C 125.701 40.882,125.290 41.066,125.041 41.291 C 124.792 41.516,124.311 41.754,123.971 41.819 C 123.631 41.884,123.281 42.054,123.194 42.195 C 123.107 42.336,122.737 42.581,122.373 42.739 C 122.008 42.898,121.349 43.265,120.908 43.555 C 120.468 43.845,119.806 44.232,119.439 44.414 C 119.071 44.596,118.711 44.818,118.637 44.906 C 118.564 44.994,117.933 45.349,117.234 45.693 C 116.536 46.038,115.965 46.410,115.965 46.519 C 115.965 46.628,115.603 46.797,115.161 46.894 C 114.719 46.991,114.426 47.181,114.509 47.316 C 114.593 47.451,114.418 47.562,114.121 47.562 C 113.824 47.562,113.366 47.777,113.103 48.040 C 112.840 48.304,112.116 48.755,111.493 49.042 C 110.870 49.330,110.359 49.663,110.357 49.782 C 110.355 49.901,110.242 49.929,110.105 49.844 C 109.968 49.760,109.687 49.932,109.480 50.228 C 109.273 50.523,109.047 50.708,108.977 50.639 C 108.908 50.569,108.558 50.987,108.200 51.568 C 107.842 52.149,107.458 52.627,107.348 52.631 C 107.238 52.635,107.147 52.789,107.146 52.973 C 107.145 53.156,106.965 53.650,106.747 54.069 C 106.260 55.002,106.130 160.053,106.615 160.053 C 106.761 160.053,106.880 160.285,106.880 160.569 C 106.880 160.852,107.048 161.251,107.252 161.456 C 107.457 161.661,107.669 162.060,107.724 162.344 C 107.778 162.627,107.928 162.799,108.056 162.725 C 108.184 162.652,108.389 162.862,108.511 163.193 C 108.634 163.524,108.918 163.794,109.143 163.794 C 109.368 163.794,109.522 163.942,109.486 164.122 C 109.449 164.302,109.689 164.491,110.020 164.541 C 110.351 164.592,110.621 164.744,110.621 164.880 C 110.621 165.131,111.049 165.382,114.175 166.964 C 115.151 167.458,116.088 168.029,116.257 168.233 C 116.427 168.437,116.712 168.604,116.892 168.604 C 117.072 168.604,117.497 168.844,117.836 169.138 C 118.175 169.432,118.661 169.673,118.917 169.673 C 119.172 169.673,119.451 169.853,119.536 170.073 C 119.620 170.294,119.934 170.474,120.232 170.474 C 120.531 170.474,120.775 170.592,120.775 170.736 C 120.775 170.881,121.075 171.074,121.443 171.166 C 121.810 171.258,122.111 171.448,122.111 171.588 C 122.111 171.728,122.231 171.768,122.378 171.677 C 122.525 171.586,122.645 171.639,122.645 171.795 C 122.645 171.950,122.807 172.077,123.005 172.077 C 123.203 172.077,123.642 172.318,123.981 172.612 C 124.320 172.906,124.759 173.146,124.957 173.146 C 125.155 173.146,125.317 173.267,125.317 173.413 C 125.317 173.560,125.483 173.681,125.685 173.681 C 125.888 173.681,126.203 173.861,126.386 174.081 C 126.569 174.302,126.918 174.482,127.161 174.482 C 127.404 174.482,127.809 174.723,128.061 175.017 C 128.313 175.311,128.764 175.551,129.064 175.551 C 129.364 175.551,129.678 175.731,129.763 175.950 C 129.847 176.170,130.009 176.292,130.124 176.221 C 130.238 176.151,130.616 176.315,130.964 176.587 C 131.312 176.858,131.892 177.173,132.252 177.286 C 132.613 177.399,133.072 177.657,133.273 177.858 C 133.474 178.059,133.818 178.223,134.036 178.223 C 134.255 178.223,134.359 178.343,134.269 178.490 C 134.178 178.637,134.282 178.758,134.501 178.758 C 134.719 178.758,135.063 178.922,135.264 179.123 C 135.465 179.324,135.915 179.579,136.264 179.690 C 136.614 179.801,137.029 179.999,137.187 180.131 C 137.345 180.263,137.764 180.609,138.117 180.900 C 138.470 181.191,138.968 181.430,139.224 181.430 C 139.480 181.430,139.761 181.618,139.849 181.847 C 139.937 182.077,140.122 182.195,140.260 182.110 C 140.398 182.025,140.588 182.079,140.681 182.231 C 140.775 182.383,140.948 182.448,141.065 182.375 C 141.182 182.303,141.493 182.481,141.756 182.772 C 142.019 183.062,142.463 183.300,142.743 183.300 C 143.022 183.300,143.184 183.408,143.102 183.541 C 142.922 183.833,144.427 184.400,144.710 184.147 C 144.819 184.048,144.822 184.119,144.715 184.304 C 144.598 184.507,144.713 184.710,145.006 184.819 C 145.273 184.917,145.551 185.068,145.625 185.154 C 145.698 185.241,146.359 185.608,147.094 185.972 C 147.829 186.335,148.526 186.784,148.644 186.970 C 148.761 187.156,149.077 187.308,149.346 187.308 C 149.615 187.308,149.984 187.488,150.167 187.709 C 150.350 187.929,150.699 188.110,150.942 188.110 C 151.185 188.110,151.590 188.350,151.842 188.644 C 152.093 188.938,152.541 189.178,152.836 189.178 C 153.132 189.178,153.373 189.286,153.373 189.418 C 153.373 189.549,153.959 189.963,154.674 190.337 C 155.390 190.711,156.421 191.320,156.966 191.689 C 157.510 192.059,158.188 192.435,158.470 192.525 C 158.753 192.615,158.985 192.800,158.985 192.937 C 158.985 193.074,159.210 193.186,159.486 193.186 C 159.762 193.186,160.138 193.367,160.321 193.587 C 160.504 193.808,160.852 193.988,161.096 193.988 C 161.339 193.988,161.744 194.228,161.995 194.522 C 162.247 194.816,162.698 195.057,162.998 195.057 C 163.298 195.057,163.613 195.237,163.698 195.458 C 163.782 195.678,163.961 195.858,164.095 195.858 C 164.230 195.858,164.818 196.160,165.403 196.530 C 165.988 196.899,166.468 197.109,166.470 196.997 C 166.473 196.885,166.563 196.930,166.671 197.097 C 166.779 197.263,167.588 197.789,168.469 198.265 C 169.350 198.740,170.356 199.354,170.705 199.628 C 171.054 199.902,171.446 200.060,171.576 199.979 C 171.707 199.899,171.886 200.020,171.974 200.249 C 172.062 200.478,172.241 200.598,172.373 200.517 C 172.504 200.436,172.612 200.497,172.612 200.652 C 172.612 200.808,172.852 200.935,173.146 200.935 C 173.440 200.935,173.681 201.055,173.681 201.202 C 173.681 201.349,173.807 201.470,173.962 201.470 C 174.117 201.470,174.686 201.770,175.227 202.138 C 175.767 202.505,176.409 202.806,176.653 202.806 C 176.897 202.806,177.162 202.973,177.240 203.179 C 177.319 203.384,177.873 203.768,178.471 204.032 C 179.070 204.296,179.559 204.599,179.559 204.706 C 179.559 204.813,179.910 204.978,180.338 205.072 C 180.767 205.166,181.184 205.416,181.265 205.628 C 181.346 205.839,181.657 206.012,181.956 206.012 C 182.254 206.012,182.498 206.124,182.498 206.261 C 182.498 206.398,182.769 206.595,183.100 206.698 C 183.430 206.801,183.787 207.020,183.891 207.184 C 183.996 207.348,184.177 207.492,184.292 207.505 C 184.708 207.550,185.578 207.993,185.924 208.335 C 186.118 208.527,186.516 208.684,186.808 208.684 C 187.100 208.684,187.265 208.804,187.174 208.951 C 187.084 209.098,187.182 209.218,187.393 209.218 C 187.604 209.218,187.926 209.397,188.107 209.616 C 188.289 209.835,188.526 209.960,188.634 209.893 C 188.742 209.826,189.079 210.003,189.382 210.286 C 189.686 210.569,190.255 210.880,190.647 210.979 C 191.039 211.077,191.418 211.312,191.490 211.500 C 191.563 211.688,191.914 211.915,192.271 212.005 C 192.627 212.095,192.919 212.286,192.919 212.430 C 192.919 212.574,193.111 212.692,193.345 212.692 C 193.579 212.692,194.076 212.933,194.449 213.226 C 194.823 213.520,195.360 213.761,195.643 213.761 C 195.926 213.761,196.092 213.866,196.012 213.996 C 195.860 214.241,197.078 214.562,198.163 214.562 C 198.512 214.562,198.798 214.683,198.798 214.830 C 198.798 214.977,199.346 215.097,200.016 215.097 C 200.686 215.097,201.167 214.989,201.085 214.856 C 201.004 214.724,201.508 214.547,202.205 214.463 C 204.106 214.234,204.108 214.233,204.255 213.850 C 204.331 213.654,204.577 213.494,204.804 213.494 C 205.030 213.494,205.713 213.133,206.322 212.692 C 206.930 212.251,207.582 211.890,207.770 211.890 C 207.958 211.890,208.270 211.736,208.465 211.548 C 208.983 211.046,210.801 210.020,211.174 210.020 C 211.350 210.020,211.819 209.719,212.216 209.352 C 212.612 208.985,213.113 208.684,213.329 208.684 C 213.546 208.684,213.887 208.520,214.088 208.318 C 214.289 208.117,214.719 207.869,215.043 207.766 C 215.366 207.663,215.631 207.482,215.631 207.362 C 215.631 207.243,216.022 206.992,216.500 206.803 C 216.977 206.615,217.742 206.186,218.200 205.850 C 218.657 205.514,219.349 205.159,219.736 205.062 C 220.124 204.965,220.441 204.795,220.441 204.684 C 220.441 204.574,220.982 204.196,221.643 203.845 C 222.305 203.494,222.846 203.117,222.846 203.006 C 222.846 202.896,223.086 202.806,223.380 202.806 C 223.674 202.806,224.155 202.565,224.449 202.271 C 224.743 201.977,225.073 201.735,225.184 201.734 C 225.671 201.726,226.319 201.412,226.319 201.184 C 226.319 201.047,226.545 200.935,226.821 200.935 C 227.097 200.935,227.471 200.757,227.652 200.539 C 227.833 200.320,228.539 199.869,229.221 199.537 C 229.903 199.204,230.501 198.841,230.550 198.731 C 230.599 198.621,230.809 198.530,231.018 198.530 C 231.226 198.530,231.396 198.410,231.396 198.263 C 231.396 198.116,231.486 198.020,231.597 198.050 C 231.881 198.127,233.831 197.067,234.479 196.483 C 234.779 196.213,235.200 195.952,235.415 195.904 C 235.629 195.856,235.995 195.645,236.227 195.437 C 236.459 195.228,236.850 195.057,237.095 195.057 C 237.341 195.057,237.542 194.940,237.542 194.798 C 237.542 194.655,238.233 194.204,239.078 193.796 C 239.923 193.387,240.655 192.963,240.704 192.852 C 240.753 192.742,240.954 192.652,241.152 192.652 C 241.350 192.652,241.670 192.493,241.865 192.299 C 242.059 192.105,242.338 191.918,242.485 191.885 C 242.632 191.852,243.173 191.565,243.687 191.248 C 244.202 190.930,244.983 190.491,245.424 190.270 C 245.865 190.050,246.322 189.714,246.439 189.524 C 246.557 189.334,246.889 189.178,247.177 189.178 C 247.465 189.178,247.907 188.938,248.158 188.644 C 248.410 188.350,248.777 188.110,248.975 188.110 C 249.173 188.110,249.740 187.800,250.236 187.422 C 250.732 187.043,251.235 186.748,251.354 186.765 C 251.473 186.783,252.203 186.371,252.976 185.850 C 253.749 185.329,254.548 184.903,254.751 184.903 C 254.954 184.903,255.189 184.723,255.274 184.502 C 255.358 184.282,255.675 184.102,255.979 184.102 C 256.282 184.102,256.599 183.921,256.684 183.701 C 256.768 183.480,257.047 183.300,257.302 183.300 C 257.558 183.300,258.045 183.059,258.383 182.766 C 258.722 182.472,259.242 182.231,259.538 182.231 C 259.834 182.231,259.994 182.149,259.893 182.049 C 259.793 181.948,260.224 181.607,260.851 181.290 C 262.917 180.245,264.393 179.428,264.529 179.254 C 264.603 179.160,265.174 178.817,265.798 178.493 C 266.423 178.168,266.934 177.794,266.934 177.662 C 266.934 177.530,267.144 177.419,267.401 177.416 C 267.659 177.412,268.170 177.174,268.537 176.887 C 268.904 176.600,269.419 176.362,269.681 176.359 C 269.943 176.355,270.221 176.185,270.300 175.980 C 270.378 175.776,271.126 175.291,271.962 174.902 C 273.520 174.178,274.447 173.664,274.683 173.394 C 274.756 173.310,274.997 173.157,275.217 173.055 C 275.438 172.952,276.099 172.579,276.687 172.225 C 277.275 171.872,278.387 171.264,279.158 170.875 C 279.930 170.486,280.561 170.071,280.561 169.952 C 280.561 169.739,281.282 169.467,281.716 169.515 C 281.836 169.528,282.052 169.329,282.196 169.071 C 282.340 168.814,282.678 168.604,282.946 168.604 C 283.215 168.604,283.585 168.424,283.768 168.203 C 283.950 167.983,284.266 167.802,284.468 167.802 C 284.671 167.802,284.836 167.708,284.836 167.594 C 284.836 167.479,285.167 167.242,285.571 167.066 C 285.975 166.891,287.027 166.319,287.909 165.795 C 288.791 165.271,289.723 164.773,289.980 164.688 C 290.237 164.603,290.448 164.433,290.448 164.310 C 290.448 164.042,291.727 162.728,291.996 162.720 C 292.100 162.717,292.515 161.993,292.918 161.112 L 293.653 159.511 293.651 107.269 C 293.650 78.536,293.547 54.821,293.423 54.568 C 293.300 54.315,292.974 53.627,292.700 53.039 C 292.186 51.939,290.328 49.908,290.070 50.166 C 289.991 50.245,289.850 50.113,289.757 49.871 C 289.665 49.630,289.436 49.432,289.249 49.432 C 289.063 49.432,288.772 49.266,288.604 49.064 C 288.436 48.861,287.932 48.622,287.485 48.532 C 287.033 48.442,286.746 48.249,286.838 48.099 C 286.930 47.951,286.908 47.820,286.789 47.809 C 286.028 47.737,285.533 47.550,285.126 47.181 C 284.870 46.950,284.520 46.760,284.348 46.760 C 284.176 46.760,284.035 46.667,284.035 46.554 C 284.035 46.441,283.464 46.050,282.766 45.686 C 282.067 45.321,281.408 44.903,281.300 44.756 C 281.192 44.609,281.102 44.585,281.100 44.703 C 281.097 44.821,280.705 44.619,280.227 44.255 C 279.749 43.890,279.271 43.573,279.164 43.550 C 278.219 43.342,277.917 43.191,278.041 42.989 C 278.122 42.859,277.940 42.752,277.638 42.752 C 277.335 42.752,276.847 42.512,276.553 42.218 C 276.259 41.924,275.838 41.683,275.618 41.683 C 275.397 41.683,275.217 41.576,275.217 41.445 C 275.217 41.314,274.894 41.126,274.499 41.027 C 274.104 40.927,273.653 40.676,273.497 40.467 C 273.341 40.259,272.282 39.625,271.144 39.058 C 270.006 38.492,269.164 37.939,269.273 37.830 C 269.383 37.720,269.352 37.660,269.205 37.696 C 268.919 37.765,267.957 37.414,267.735 37.160 C 267.549 36.947,266.658 36.397,265.865 36.007 C 265.498 35.826,265.038 35.526,264.844 35.340 C 264.650 35.155,264.286 35.003,264.035 35.003 C 263.784 35.003,263.373 34.763,263.121 34.469 C 262.870 34.175,262.482 33.935,262.260 33.935 C 262.039 33.935,261.857 33.824,261.857 33.689 C 261.857 33.553,261.506 33.366,261.078 33.271 C 260.649 33.177,260.229 32.920,260.144 32.699 C 260.060 32.478,259.883 32.364,259.753 32.444 C 259.622 32.525,259.211 32.352,258.840 32.060 C 258.469 31.769,258.064 31.526,257.940 31.522 C 257.817 31.518,257.243 31.157,256.666 30.721 C 256.089 30.284,255.457 29.927,255.263 29.927 C 255.069 29.927,254.910 29.799,254.910 29.644 C 254.910 29.488,254.790 29.435,254.643 29.526 C 254.496 29.617,254.375 29.564,254.375 29.408 C 254.375 29.252,254.135 29.125,253.841 29.125 C 253.547 29.125,253.307 28.998,253.307 28.842 C 253.307 28.686,253.199 28.626,253.067 28.707 C 252.936 28.788,252.759 28.675,252.675 28.455 C 252.591 28.236,252.292 28.056,252.012 28.056 C 251.731 28.056,251.352 27.876,251.169 27.655 C 250.986 27.435,250.671 27.255,250.468 27.255 C 250.266 27.255,250.100 27.163,250.100 27.051 C 250.100 26.845,249.518 26.491,248.163 25.870 C 247.759 25.685,247.428 25.440,247.428 25.326 C 247.428 25.211,247.188 25.117,246.894 25.117 C 246.600 25.117,246.359 24.997,246.359 24.850 C 246.359 24.703,246.179 24.582,245.959 24.582 C 245.738 24.582,245.558 24.462,245.558 24.315 C 245.558 24.168,245.317 24.048,245.023 24.048 C 244.729 24.048,244.489 23.929,244.489 23.784 C 244.489 23.639,244.098 23.340,243.621 23.118 C 243.143 22.897,242.271 22.419,241.683 22.057 C 241.096 21.695,240.397 21.394,240.131 21.388 C 239.865 21.381,239.717 21.265,239.801 21.128 C 239.952 20.883,238.951 20.413,238.524 20.528 C 238.403 20.561,238.380 20.465,238.473 20.314 C 238.566 20.163,238.515 20.025,238.359 20.007 C 238.203 19.988,237.952 19.958,237.799 19.940 C 237.647 19.922,237.423 19.746,237.302 19.550 C 237.180 19.353,236.974 19.188,236.844 19.182 C 236.404 19.161,235.807 18.873,235.538 18.552 C 235.391 18.377,234.935 18.156,234.525 18.060 C 234.115 17.965,233.851 17.770,233.939 17.627 C 234.028 17.485,233.882 17.365,233.616 17.362 C 233.350 17.359,232.832 17.121,232.465 16.834 C 232.098 16.546,231.647 16.308,231.463 16.305 C 231.279 16.302,231.129 16.179,231.129 16.032 C 231.129 15.885,230.967 15.765,230.768 15.765 C 230.570 15.765,229.908 15.403,229.299 14.962 C 228.689 14.520,228.190 14.227,228.190 14.312 C 228.190 14.396,227.845 14.220,227.425 13.921 C 227.004 13.621,226.583 13.452,226.490 13.546 C 226.396 13.640,226.319 13.576,226.319 13.405 C 226.319 13.233,226.145 13.093,225.932 13.093 C 225.719 13.093,225.426 12.882,225.283 12.625 C 225.139 12.368,224.922 12.186,224.802 12.221 C 224.430 12.329,223.647 12.002,223.647 11.739 C 223.647 11.602,223.485 11.490,223.287 11.490 C 223.089 11.490,222.650 11.249,222.311 10.955 C 221.972 10.661,221.533 10.421,221.335 10.421 C 221.137 10.421,220.975 10.309,220.975 10.172 C 220.975 10.035,220.705 9.838,220.374 9.736 C 220.043 9.633,219.459 9.328,219.075 9.058 C 218.691 8.787,218.300 8.643,218.206 8.736 C 218.113 8.830,218.036 8.774,218.036 8.612 C 218.036 8.450,217.615 8.166,217.101 7.980 C 216.587 7.794,216.166 7.545,216.166 7.428 C 216.166 7.311,215.982 7.214,215.756 7.214 C 215.531 7.214,215.281 7.041,215.200 6.830 C 215.119 6.618,214.702 6.368,214.273 6.274 C 213.844 6.180,213.494 6.006,213.494 5.886 C 213.494 5.767,213.193 5.594,212.826 5.501 C 212.458 5.409,212.158 5.225,212.158 5.093 C 212.158 4.960,211.789 4.771,211.338 4.672 C 210.887 4.573,210.453 4.323,210.374 4.116 C 210.295 3.910,210.002 3.741,209.724 3.741 C 209.446 3.741,209.218 3.613,209.218 3.458 C 209.218 3.302,209.098 3.249,208.951 3.340 C 208.804 3.431,208.684 3.378,208.684 3.222 C 208.684 3.067,208.522 2.939,208.324 2.939 C 208.126 2.939,207.687 2.699,207.348 2.405 C 207.009 2.111,206.570 1.870,206.372 1.870 C 206.174 1.870,206.012 1.750,206.012 1.603 C 206.012 1.456,205.887 1.336,205.734 1.336 C 205.581 1.336,205.090 1.065,204.643 0.735 C 203.587 -0.047,197.280 -0.310,196.126 0.380 M192.855 21.107 C 193.334 21.399,193.965 22.030,194.257 22.509 C 194.967 23.674,195.113 190.025,194.405 191.719 C 193.607 193.630,191.287 194.235,189.151 193.091 C 186.735 191.796,180.333 188.163,176.283 185.788 C 174.701 184.860,173.348 184.102,173.276 184.102 C 173.204 184.102,171.631 183.200,169.780 182.098 C 167.929 180.995,166.354 180.094,166.280 180.094 C 166.205 180.094,164.624 179.209,162.765 178.128 C 157.525 175.080,153.888 172.996,152.572 172.285 C 150.872 171.367,145.474 168.280,142.081 166.286 C 140.499 165.356,139.156 164.596,139.097 164.596 C 139.037 164.596,138.047 164.039,136.896 163.358 C 135.745 162.678,134.441 161.926,133.999 161.688 C 127.865 158.389,119.721 153.470,119.348 152.839 C 118.762 151.847,118.657 102.498,119.238 101.476 C 120.301 99.608,121.033 99.399,126.517 99.399 C 130.692 99.399,131.334 99.459,132.266 99.934 C 134.095 100.867,133.988 99.553,134.135 122.903 L 134.269 144.136 139.078 146.902 C 141.723 148.423,144.647 150.087,145.575 150.599 C 146.503 151.112,149.629 152.888,152.522 154.546 C 155.415 156.204,158.504 157.961,159.385 158.451 C 160.267 158.941,161.830 159.838,162.859 160.445 C 163.888 161.053,164.910 161.633,165.130 161.735 C 165.351 161.837,165.711 162.039,165.932 162.185 C 166.152 162.330,168.377 163.606,170.875 165.020 C 173.373 166.435,176.079 167.986,176.887 168.467 C 177.695 168.949,178.627 169.425,178.958 169.526 L 179.559 169.709 179.559 107.166 C 179.559 72.767,179.504 44.623,179.437 44.623 C 179.370 44.623,178.679 44.998,177.901 45.457 C 177.123 45.916,175.885 46.617,175.150 47.015 C 174.415 47.413,171.409 49.120,168.470 50.808 C 165.531 52.496,162.946 53.958,162.725 54.058 C 162.505 54.157,162.144 54.358,161.924 54.505 C 161.237 54.962,156.007 57.983,155.902 57.983 C 155.848 57.983,154.084 58.981,151.983 60.201 C 148.162 62.421,144.456 64.535,142.100 65.839 C 141.411 66.220,139.510 67.314,137.876 68.269 C 136.243 69.225,134.840 70.007,134.759 70.007 C 134.679 70.007,134.079 70.367,133.425 70.808 C 132.772 71.249,132.163 71.610,132.072 71.610 C 131.980 71.610,131.716 71.773,131.484 71.973 C 131.252 72.173,130.281 72.762,129.325 73.283 C 128.370 73.803,126.627 74.781,125.451 75.456 C 122.467 77.168,120.409 76.950,119.299 74.804 C 118.796 73.831,118.721 62.953,119.210 61.879 C 119.576 61.077,120.294 60.585,125.184 57.793 C 127.241 56.617,130.187 54.930,131.730 54.043 C 133.273 53.156,135.137 52.100,135.872 51.695 C 136.607 51.291,138.203 50.376,139.420 49.662 C 140.637 48.948,141.678 48.363,141.734 48.363 C 141.789 48.363,143.018 47.663,144.464 46.806 C 145.911 45.950,147.816 44.856,148.697 44.374 C 149.579 43.893,151.503 42.806,152.973 41.959 C 154.442 41.111,158.530 38.776,162.057 36.768 C 165.585 34.761,168.651 33.001,168.871 32.857 C 169.092 32.713,169.451 32.512,169.669 32.410 C 169.888 32.309,173.057 30.506,176.712 28.404 C 180.367 26.302,183.394 24.582,183.440 24.582 C 183.486 24.582,184.465 24.024,185.616 23.341 C 190.570 20.403,191.319 20.171,192.855 21.107 M211.167 21.471 C 212.079 21.964,213.639 22.866,214.634 23.475 C 215.629 24.084,216.494 24.582,216.558 24.582 C 216.622 24.582,218.120 25.424,219.888 26.453 C 221.655 27.482,223.153 28.323,223.216 28.323 C 223.279 28.323,224.514 29.025,225.960 29.883 C 227.407 30.740,229.192 31.776,229.927 32.184 C 230.661 32.592,233.427 34.160,236.072 35.669 C 238.717 37.178,241.333 38.667,241.884 38.979 C 242.435 39.291,243.337 39.801,243.888 40.112 C 245.113 40.805,248.959 43.033,249.696 43.476 C 249.992 43.654,250.414 43.885,250.635 43.990 C 250.855 44.094,252.454 45.001,254.188 46.004 C 255.922 47.008,257.391 47.829,257.452 47.829 C 257.513 47.829,258.619 48.463,259.910 49.238 C 261.202 50.013,262.558 50.794,262.926 50.973 C 263.293 51.152,263.774 51.416,263.995 51.560 C 264.710 52.027,269.920 55.043,270.010 55.043 C 270.059 55.043,271.160 55.658,272.457 56.409 C 273.755 57.160,275.598 58.202,276.553 58.725 C 281.752 61.572,281.229 59.162,281.229 80.294 C 281.229 102.816,281.908 101.002,273.474 101.002 C 265.076 101.002,265.766 102.451,265.598 84.476 L 265.464 70.222 263.861 69.366 C 262.979 68.895,261.236 67.907,259.987 67.170 C 258.737 66.434,257.535 65.749,257.315 65.649 C 257.094 65.549,256.733 65.353,256.513 65.214 C 256.293 65.074,254.970 64.308,253.574 63.511 C 252.178 62.713,249.134 60.963,246.811 59.621 C 244.487 58.279,242.543 57.181,242.491 57.181 C 242.438 57.181,241.514 56.662,240.436 56.028 C 239.359 55.394,238.297 54.791,238.076 54.689 C 237.856 54.586,237.194 54.225,236.607 53.887 C 236.019 53.549,234.035 52.412,232.198 51.361 C 230.361 50.310,228.712 49.326,228.535 49.174 C 228.357 49.022,228.133 48.898,228.036 48.898 C 227.938 48.898,227.182 48.490,226.354 47.992 C 224.455 46.848,220.827 44.890,220.607 44.890 C 220.516 44.890,220.441 72.906,220.441 107.148 C 220.441 162.727,220.485 169.405,220.848 169.405 C 221.256 169.405,222.403 168.775,229.464 164.673 C 231.560 163.455,233.324 162.458,233.383 162.458 C 233.442 162.458,234.371 161.937,235.449 161.301 C 236.526 160.664,238.009 159.809,238.744 159.400 C 240.866 158.220,249.605 153.226,250.635 152.606 C 251.149 152.296,251.870 151.891,252.238 151.707 C 252.605 151.524,254.387 150.501,256.197 149.434 C 258.008 148.368,259.554 147.495,259.634 147.495 C 259.714 147.495,260.774 146.894,261.991 146.159 C 263.207 145.424,264.317 144.823,264.458 144.823 C 265.545 144.823,265.580 144.421,265.657 130.853 L 265.731 117.844 266.737 116.838 L 267.743 115.832 273.017 115.755 C 281.968 115.624,281.229 113.874,281.229 135.204 C 281.229 154.302,281.389 153.091,278.691 154.492 C 278.323 154.683,276.864 155.531,275.448 156.377 C 274.032 157.224,272.809 157.916,272.731 157.916 C 272.653 157.916,271.647 158.474,270.496 159.155 C 269.345 159.837,267.742 160.754,266.934 161.192 C 266.126 161.630,264.066 162.815,262.357 163.826 C 260.647 164.837,259.114 165.665,258.950 165.665 C 258.785 165.665,258.651 165.785,258.651 165.932 C 258.651 166.079,258.529 166.199,258.381 166.199 C 258.233 166.199,256.940 166.878,255.509 167.708 C 254.077 168.538,252.244 169.580,251.436 170.024 C 250.628 170.468,249.510 171.117,248.952 171.466 C 248.393 171.815,247.672 172.221,247.348 172.368 C 247.025 172.515,246.520 172.780,246.226 172.957 C 245.932 173.135,244.549 173.941,243.153 174.749 C 241.757 175.558,240.374 176.364,240.080 176.542 C 239.786 176.719,239.305 176.976,239.011 177.113 C 238.717 177.250,237.235 178.097,235.716 178.995 C 234.198 179.893,232.912 180.628,232.859 180.628 C 232.806 180.628,231.463 181.386,229.875 182.313 C 228.287 183.240,226.807 184.081,226.587 184.182 C 226.366 184.283,226.005 184.483,225.785 184.627 C 224.881 185.216,219.396 188.377,219.277 188.377 C 219.170 188.377,213.992 191.324,212.692 192.125 C 211.576 192.813,209.043 193.987,208.688 193.982 C 207.610 193.966,206.025 192.924,205.493 191.881 L 204.943 190.803 204.943 107.265 C 204.943 14.134,204.763 22.597,206.780 21.226 C 208.084 20.340,209.189 20.402,211.167 21.471 M336.012 236.953 C 335.605 238.012,335.877 266.879,336.294 267.039 C 336.527 267.128,338.080 267.201,339.746 267.201 C 341.412 267.201,342.965 267.128,343.198 267.039 C 343.570 266.896,343.621 265.952,343.621 259.181 C 343.621 251.618,343.630 251.489,344.155 251.626 C 344.449 251.703,344.689 251.876,344.689 252.010 C 344.689 252.145,344.894 252.333,345.144 252.429 C 345.394 252.525,345.953 252.942,346.386 253.356 C 346.819 253.770,347.336 254.108,347.535 254.108 C 347.733 254.108,347.896 254.289,347.896 254.509 C 347.896 254.729,348.080 254.910,348.305 254.910 C 348.530 254.910,348.783 255.090,348.868 255.311 C 348.953 255.531,349.165 255.711,349.340 255.711 C 349.515 255.711,350.073 256.121,350.580 256.621 C 351.088 257.122,351.587 257.479,351.690 257.415 C 351.793 257.352,352.007 257.544,352.167 257.842 C 352.327 258.140,352.633 258.383,352.848 258.383 C 353.064 258.383,353.240 258.511,353.240 258.666 C 353.240 258.822,353.360 258.875,353.507 258.784 C 353.654 258.693,353.774 258.807,353.774 259.036 C 353.774 259.274,354.003 259.452,354.309 259.452 C 354.603 259.452,354.813 259.597,354.776 259.774 C 354.739 259.951,354.833 260.101,354.983 260.108 C 355.443 260.128,356.708 261.239,356.504 261.443 C 356.399 261.548,356.443 261.594,356.602 261.545 C 356.944 261.440,357.954 262.145,359.442 263.527 C 360.035 264.078,360.631 264.529,360.766 264.529 C 361.037 264.529,361.595 264.950,362.269 265.665 C 362.512 265.922,362.864 266.132,363.052 266.132 C 363.240 266.132,363.363 266.283,363.327 266.466 C 363.290 266.650,363.410 266.770,363.594 266.733 C 363.778 266.697,363.928 266.787,363.928 266.934 C 363.928 267.081,364.590 267.201,365.400 267.201 L 366.872 267.201 366.802 252.171 L 366.733 237.141 363.308 237.057 C 358.694 236.943,359.118 236.105,359.118 245.323 C 359.118 252.536,358.969 254.086,358.413 252.639 C 358.329 252.418,358.147 252.238,358.010 252.238 C 357.731 252.238,357.277 251.897,356.222 250.894 C 355.831 250.523,355.451 250.216,355.377 250.214 C 355.227 250.209,354.216 249.406,353.467 248.697 C 353.195 248.440,352.875 248.230,352.755 248.230 C 352.636 248.230,352.185 247.861,351.753 247.409 C 351.322 246.958,350.548 246.331,350.033 246.015 C 349.519 245.700,348.806 245.174,348.448 244.846 C 348.091 244.518,347.700 244.311,347.580 244.385 C 347.460 244.460,347.361 244.333,347.361 244.104 C 347.361 243.875,347.230 243.687,347.070 243.687 C 346.638 243.687,345.481 242.717,345.678 242.520 C 345.771 242.427,345.731 242.351,345.590 242.351 C 345.288 242.351,344.277 241.615,343.664 240.949 C 343.428 240.691,343.021 240.481,342.760 240.481 C 342.498 240.481,342.285 240.301,342.285 240.080 C 342.285 239.860,342.123 239.679,341.925 239.679 C 341.728 239.679,341.348 239.439,341.082 239.145 C 340.816 238.851,340.430 238.611,340.223 238.611 C 340.017 238.611,339.923 238.490,340.013 238.343 C 340.104 238.196,340.074 238.076,339.946 238.076 C 339.819 238.076,339.309 237.685,338.813 237.208 C 338.318 236.730,338.017 236.520,338.146 236.740 C 338.340 237.074,338.310 237.085,337.966 236.807 C 337.441 236.381,336.195 236.475,336.012 236.953 M23.140 237.638 C 23.056 237.953,22.985 243.170,22.983 249.232 L 22.979 260.254 15.097 260.254 L 7.214 260.254 7.214 257.479 C 7.214 254.199,7.448 254.385,3.327 254.379 C -0.208 254.374,-0.000 254.022,-0.000 260.023 C 0.000 265.645,0.132 266.259,1.459 266.813 C 2.472 267.236,28.022 267.414,28.435 267.001 C 28.545 266.890,28.771 266.800,28.936 266.800 C 29.102 266.800,29.497 266.414,29.815 265.943 C 30.133 265.471,30.466 265.158,30.556 265.247 C 30.645 265.337,30.718 259.092,30.718 251.370 L 30.718 237.330 30.028 237.157 C 28.201 236.698,23.300 237.041,23.140 237.638 M34.532 237.196 C 34.199 237.260,33.996 237.424,34.080 237.561 C 34.164 237.697,33.986 237.809,33.683 237.809 C 33.381 237.809,33.133 237.975,33.133 238.177 C 33.133 238.379,32.953 238.695,32.732 238.878 C 32.512 239.061,32.331 239.496,32.331 239.846 C 32.331 240.195,32.211 240.481,32.064 240.481 C 31.555 240.481,31.714 265.758,32.228 266.542 C 32.648 267.183,32.748 267.201,35.947 267.201 C 40.477 267.201,40.080 267.640,40.080 262.630 L 40.080 258.383 47.829 258.383 L 55.578 258.383 55.578 262.370 C 55.578 264.562,55.651 266.546,55.740 266.778 C 55.976 267.394,63.059 267.416,63.059 266.800 C 63.059 266.580,63.180 266.399,63.327 266.399 C 63.501 266.399,63.594 261.945,63.594 253.570 C 63.594 240.519,63.464 238.611,62.578 238.611 C 62.384 238.611,62.302 238.488,62.394 238.339 C 63.075 237.237,39.375 236.266,34.532 237.196 M65.328 237.279 C 65.236 237.428,65.048 237.481,64.911 237.397 C 64.759 237.303,64.663 242.983,64.663 252.060 C 64.663 265.324,64.707 266.894,65.085 267.039 C 65.318 267.128,66.871 267.201,68.537 267.201 C 72.745 267.201,72.411 267.555,72.411 263.096 L 72.411 259.316 73.480 258.181 C 74.068 257.557,74.549 257.116,74.549 257.201 C 74.549 257.286,74.859 256.987,75.238 256.537 L 75.927 255.718 79.112 258.917 C 80.864 260.676,82.298 262.238,82.298 262.387 C 82.298 262.536,82.478 262.659,82.699 262.659 C 82.919 262.659,83.100 262.839,83.100 263.059 C 83.100 263.280,83.280 263.460,83.500 263.460 C 83.721 263.460,83.901 263.587,83.901 263.743 C 83.901 263.898,84.443 264.560,85.105 265.213 C 85.767 265.865,86.225 266.399,86.123 266.399 C 86.020 266.399,86.167 266.568,86.449 266.775 C 87.260 267.367,94.196 267.380,94.423 266.789 C 94.803 265.799,94.558 265.032,93.520 263.963 C 92.933 263.357,92.452 262.813,92.452 262.754 C 92.452 262.695,91.369 261.570,90.047 260.254 C 88.724 258.937,87.642 257.738,87.642 257.588 C 87.642 257.437,87.462 257.315,87.241 257.315 C 87.021 257.315,86.840 257.201,86.840 257.061 C 86.840 256.698,85.614 255.424,85.435 255.602 C 85.353 255.684,85.206 255.500,85.109 255.193 C 85.011 254.886,84.829 254.698,84.703 254.776 C 84.577 254.854,84.402 254.692,84.315 254.417 C 84.228 254.141,83.768 253.540,83.294 253.081 C 82.820 252.622,82.131 251.941,81.764 251.568 L 81.096 250.888 81.694 250.731 C 82.023 250.645,82.231 250.476,82.157 250.356 C 82.083 250.237,82.267 250.061,82.565 249.967 C 82.863 249.872,83.044 249.692,82.966 249.566 C 82.888 249.440,83.070 249.259,83.370 249.164 C 83.670 249.069,84.106 248.700,84.338 248.345 C 84.571 247.990,84.868 247.766,84.999 247.847 C 85.130 247.928,85.237 247.800,85.237 247.562 C 85.237 247.324,85.338 247.192,85.462 247.268 C 85.585 247.345,85.950 247.051,86.271 246.616 C 86.593 246.181,87.033 245.825,87.249 245.825 C 87.465 245.825,87.642 245.645,87.642 245.424 C 87.642 245.204,87.822 245.023,88.043 245.023 C 88.263 245.023,88.444 244.843,88.444 244.623 C 88.444 244.402,88.610 244.222,88.814 244.222 C 89.018 244.222,89.465 243.870,89.807 243.440 C 90.150 243.010,90.524 242.717,90.639 242.788 C 90.754 242.859,90.848 242.818,90.848 242.696 C 90.848 242.574,91.443 242.004,92.169 241.428 C 92.896 240.852,93.430 240.284,93.356 240.164 C 93.282 240.044,93.396 239.947,93.610 239.947 C 94.454 239.947,94.618 237.719,93.805 237.284 C 91.686 236.150,86.018 237.131,84.465 238.901 C 84.090 239.329,83.629 239.679,83.441 239.679 C 83.253 239.679,83.100 239.860,83.100 240.080 C 83.100 240.301,82.919 240.481,82.699 240.481 C 82.478 240.481,82.298 240.661,82.298 240.882 C 82.298 241.102,82.208 241.253,82.097 241.216 C 81.896 241.149,80.629 242.206,78.817 243.955 C 78.284 244.469,77.737 244.932,77.601 244.983 C 77.466 245.035,77.385 245.185,77.422 245.317 C 77.458 245.450,77.350 245.558,77.181 245.558 C 77.012 245.558,76.466 245.979,75.966 246.493 C 75.466 247.007,74.943 247.428,74.803 247.428 C 74.664 247.428,74.549 247.629,74.549 247.874 C 74.549 248.118,74.481 248.251,74.398 248.167 C 74.314 248.084,73.863 248.390,73.396 248.847 L 72.545 249.679 72.473 243.698 C 72.427 239.835,72.297 237.592,72.106 237.362 C 71.744 236.926,65.593 236.850,65.328 237.279 M98.674 237.274 C 98.349 237.408,97.929 237.763,97.741 238.064 C 97.553 238.365,97.252 238.611,97.072 238.611 C 96.818 238.611,96.742 241.804,96.731 252.906 L 96.718 267.201 100.233 267.201 C 104.698 267.201,104.456 267.480,104.467 262.325 L 104.476 258.383 112.091 258.383 L 119.706 258.383 119.706 262.429 C 119.706 267.440,119.480 267.181,123.873 267.193 C 128.450 267.205,127.989 268.754,127.989 253.361 C 127.989 240.173,127.871 238.611,126.871 238.611 C 126.751 238.611,126.653 238.430,126.653 238.210 C 126.653 237.989,126.483 237.809,126.275 237.809 C 126.067 237.809,125.846 237.659,125.785 237.475 C 125.650 237.068,99.644 236.875,98.674 237.274 M129.603 237.592 C 129.069 238.165,129.058 238.456,129.058 252.412 C 129.058 269.062,128.528 267.201,133.274 267.201 C 137.506 267.201,137.341 267.400,137.341 262.304 L 137.341 258.383 142.443 258.383 C 147.320 258.383,147.551 258.407,147.685 258.918 C 147.762 259.212,147.918 259.452,148.032 259.452 C 148.145 259.452,148.309 259.732,148.395 260.074 C 148.481 260.416,148.853 261.023,149.223 261.422 C 149.593 261.821,149.969 262.442,150.060 262.804 C 150.151 263.165,150.332 263.460,150.463 263.460 C 150.594 263.460,150.701 263.644,150.701 263.869 C 150.701 264.094,150.874 264.345,151.086 264.426 C 151.297 264.507,151.549 264.933,151.645 265.371 C 151.742 265.810,151.990 266.233,152.196 266.313 C 152.403 266.392,152.572 266.624,152.572 266.829 C 152.572 267.228,159.740 267.365,160.590 266.982 C 161.069 266.766,161.308 265.063,160.859 265.063 C 160.693 265.063,160.631 264.943,160.721 264.796 C 160.812 264.649,160.759 264.529,160.604 264.529 C 160.448 264.529,160.321 264.357,160.321 264.147 C 160.321 263.937,160.156 263.601,159.955 263.400 C 159.754 263.199,159.510 262.783,159.412 262.476 C 159.315 262.168,158.954 261.613,158.610 261.243 C 158.267 260.872,157.908 260.258,157.812 259.877 C 157.717 259.496,157.520 259.185,157.376 259.185 C 156.786 259.185,157.168 258.428,157.844 258.258 C 158.245 258.158,158.966 257.634,159.447 257.094 L 160.320 256.112 160.320 247.648 L 160.321 239.183 159.385 238.191 C 158.871 237.646,158.450 237.301,158.450 237.424 C 158.450 237.548,158.306 237.504,158.130 237.328 C 157.888 237.087,154.379 237.007,143.978 237.007 L 130.148 237.007 129.603 237.592 M162.122 237.475 C 161.807 237.827,161.703 238.547,161.701 240.384 C 161.697 244.130,161.397 243.955,167.817 243.955 L 173.146 243.955 173.146 255.136 C 173.146 268.514,172.691 267.201,177.334 267.201 C 181.864 267.201,181.430 268.485,181.430 255.089 L 181.430 243.955 186.932 243.955 C 192.200 243.955,192.441 243.932,192.574 243.423 C 192.650 243.131,192.804 242.948,192.915 243.017 C 193.362 243.293,193.228 238.387,192.768 237.686 L 192.323 237.007 177.432 237.007 C 163.588 237.007,162.512 237.040,162.122 237.475 M196.857 237.192 C 196.598 237.260,196.455 237.426,196.539 237.562 C 196.623 237.698,196.534 237.811,196.342 237.814 C 196.149 237.816,195.720 238.105,195.388 238.455 L 194.785 239.092 194.854 253.080 L 194.923 267.067 198.360 267.142 C 201.564 267.212,202.578 267.041,202.498 266.441 C 202.486 266.345,202.489 264.492,202.507 262.325 L 202.538 258.383 210.154 258.383 L 217.769 258.383 217.769 262.255 C 217.769 267.365,217.633 267.201,221.854 267.201 C 226.571 267.201,226.052 268.921,226.052 253.297 C 226.052 244.575,225.959 239.947,225.785 239.947 C 225.638 239.947,225.518 239.646,225.518 239.279 C 225.518 238.863,225.366 238.611,225.117 238.611 C 224.896 238.611,224.716 238.444,224.716 238.240 C 224.716 237.176,200.422 236.262,196.857 237.192 M229.627 237.544 C 227.589 238.500,227.625 238.215,227.712 252.627 L 227.789 265.318 228.724 266.193 L 229.659 267.067 243.953 267.141 C 260.583 267.227,258.918 267.596,258.918 263.828 C 258.918 260.000,259.807 260.254,246.385 260.254 L 235.404 260.254 235.404 252.104 L 235.404 243.955 246.745 243.955 L 258.086 243.955 258.502 243.361 C 259.096 242.512,259.093 238.023,258.498 237.427 C 257.784 236.713,231.168 236.821,229.627 237.544 M263.193 237.182 C 262.225 237.500,261.590 237.926,261.590 238.255 C 261.590 238.451,261.409 238.611,261.189 238.611 C 260.969 238.611,260.788 238.791,260.788 239.011 C 260.788 239.232,260.669 239.412,260.524 239.412 C 260.051 239.412,260.189 264.677,260.665 265.072 C 260.880 265.250,261.055 265.510,261.055 265.650 C 261.055 265.956,261.537 266.415,262.331 266.867 C 263.097 267.303,288.331 267.352,289.569 266.921 C 290.012 266.766,290.508 266.345,290.672 265.985 C 290.836 265.625,291.093 265.331,291.243 265.331 C 291.862 265.331,291.590 239.728,290.960 238.709 C 290.654 238.214,290.226 237.809,290.009 237.809 C 289.792 237.809,289.680 237.703,289.759 237.574 C 290.079 237.057,264.710 236.682,263.193 237.182 M293.712 237.491 L 293.129 237.997 293.129 252.345 C 293.129 260.510,293.230 266.630,293.363 266.547 C 293.492 266.468,293.667 266.582,293.751 266.802 C 293.977 267.390,321.162 267.403,322.567 266.816 C 323.573 266.395,324.212 265.784,323.934 265.506 C 323.838 265.410,323.899 265.331,324.070 265.331 C 324.242 265.331,324.382 265.030,324.382 264.663 C 324.382 264.295,324.502 263.995,324.649 263.995 C 325.119 263.995,325.003 240.976,324.529 240.063 C 324.316 239.653,324.204 239.217,324.279 239.095 C 324.354 238.974,324.228 238.802,323.998 238.714 C 323.768 238.626,323.580 238.386,323.580 238.181 C 323.580 237.976,323.410 237.809,323.202 237.809 C 322.994 237.809,322.773 237.659,322.712 237.475 C 322.500 236.837,294.449 236.853,293.712 237.491 M326.453 237.600 C 325.715 238.524,325.735 266.090,326.474 266.759 C 327.088 267.315,333.411 267.418,333.948 266.880 C 334.364 266.464,334.417 237.809,334.001 237.809 C 333.854 237.809,333.734 237.629,333.734 237.408 C 333.734 236.667,327.058 236.843,326.453 237.600 M371.756 237.194 C 371.433 237.257,370.813 237.713,370.379 238.207 C 369.945 238.702,369.518 239.035,369.431 238.947 C 369.343 238.860,369.272 244.704,369.272 251.933 L 369.272 265.078 370.110 265.999 C 370.571 266.506,371.044 266.861,371.160 266.789 C 371.277 266.717,371.448 266.780,371.540 266.930 C 371.783 267.322,397.234 267.299,398.365 266.905 C 399.932 266.359,400.000 265.951,400.000 257.066 L 400.000 249.042 399.398 248.891 C 399.067 248.807,395.911 248.775,392.384 248.819 L 385.972 248.898 385.897 252.037 C 385.845 254.173,385.915 255.177,386.113 255.177 C 386.273 255.177,386.330 255.297,386.239 255.444 C 386.132 255.617,387.261 255.711,389.430 255.711 L 392.786 255.711 392.786 257.983 L 392.786 260.254 384.903 260.254 L 377.021 260.254 377.021 252.104 L 377.021 243.955 387.575 243.955 C 396.779 243.955,398.130 243.903,398.130 243.554 C 398.130 243.333,398.250 243.153,398.397 243.153 C 398.794 243.153,398.744 237.729,398.343 237.328 C 398.034 237.019,373.303 236.894,371.756 237.194 M55.578 247.829 L 55.578 251.703 47.829 251.703 L 40.080 251.703 40.080 247.829 L 40.080 243.955 47.829 243.955 L 55.578 243.955 55.578 247.829 M119.706 247.829 L 119.706 251.703 112.091 251.703 L 104.476 251.703 104.476 247.829 L 104.476 243.955 112.091 243.955 L 119.706 243.955 119.706 247.829 M152.572 247.829 L 152.572 251.703 144.957 251.703 L 137.341 251.703 137.341 247.829 L 137.341 243.955 144.957 243.955 L 152.572 243.955 152.572 247.829 M217.769 247.829 L 217.769 251.703 210.154 251.703 L 202.538 251.703 202.538 247.829 L 202.538 243.955 210.154 243.955 L 217.769 243.955 217.769 247.829 M283.768 252.104 L 283.768 260.254 276.019 260.254 L 268.270 260.254 268.270 252.104 L 268.270 243.955 276.019 243.955 L 283.768 243.955 283.768 252.104 M316.633 252.104 L 316.633 260.254 309.018 260.254 L 301.403 260.254 301.403 252.104 L 301.403 243.955 309.018 243.955 L 316.633 243.955 316.633 252.104 " stroke="none" fill="#3a3c44" fill-rule="evenodd"></path><path id="path3" d="M208.216 21.026 C 208.474 21.093,208.894 21.093,209.152 21.026 C 209.409 20.959,209.198 20.904,208.684 20.904 C 208.170 20.904,207.959 20.959,208.216 21.026 M192.859 21.644 C 194.328 22.540,194.262 18.262,194.190 107.677 C 194.152 153.944,194.210 191.661,194.318 191.491 C 194.426 191.321,194.516 153.325,194.518 107.054 L 194.522 22.926 193.614 22.017 C 193.114 21.518,192.543 21.109,192.345 21.110 C 192.146 21.110,192.378 21.351,192.859 21.644 M186.560 23.023 C 185.488 23.622,184.660 24.161,184.720 24.221 C 184.838 24.339,188.644 22.205,188.644 22.021 C 188.644 21.859,188.672 21.845,186.560 23.023 M205.342 107.281 C 205.342 153.133,205.373 171.851,205.411 148.876 C 205.448 125.902,205.448 88.387,205.411 65.509 C 205.373 42.632,205.342 61.430,205.342 107.281 M183.500 24.735 C 183.096 24.955,182.766 25.190,182.766 25.259 C 182.766 25.517,183.188 25.355,183.834 24.850 C 184.628 24.229,184.510 24.188,183.500 24.735 M179.238 27.203 C 176.822 28.560,176.546 28.938,178.891 27.677 C 180.572 26.773,181.480 26.176,181.149 26.191 C 181.083 26.194,180.223 26.650,179.238 27.203 M173.340 30.565 C 170.255 32.335,168.509 33.467,170.207 32.595 C 171.691 31.835,176.887 28.806,176.887 28.702 C 176.887 28.528,176.937 28.501,173.340 30.565 M165.932 34.771 C 162.569 36.675,160.792 37.895,163.528 36.421 C 167.172 34.457,169.854 32.819,169.339 32.873 C 169.302 32.876,167.769 33.731,165.932 34.771 M159.385 38.515 C 158.063 39.262,156.860 39.998,156.713 40.151 C 156.566 40.303,157.168 40.029,158.049 39.543 C 160.826 38.011,161.924 37.361,161.924 37.249 C 161.924 37.081,161.929 37.078,159.385 38.515 M155.444 40.767 C 154.445 41.309,154.506 41.535,155.511 41.015 C 155.952 40.787,156.313 40.544,156.313 40.474 C 156.313 40.302,156.284 40.312,155.444 40.767 M152.356 42.520 C 151.282 43.121,150.454 43.662,150.515 43.724 C 150.635 43.844,154.442 41.713,154.442 41.527 C 154.442 41.356,154.428 41.362,152.356 42.520 M147.418 45.334 C 145.980 46.157,144.851 46.877,144.909 46.936 C 145.015 47.041,149.533 44.490,150.020 44.050 C 150.515 43.604,150.003 43.856,147.418 45.334 M178.958 44.272 C 178.701 44.340,178.490 44.510,178.490 44.652 C 178.490 44.806,178.703 44.795,179.025 44.623 C 179.558 44.337,179.559 44.419,179.559 107.138 C 179.559 145.243,179.462 169.940,179.313 169.940 C 179.178 169.940,178.005 169.326,176.708 168.577 C 173.906 166.958,172.663 166.312,172.968 166.632 C 173.409 167.097,179.430 170.407,179.626 170.293 C 179.736 170.228,179.826 141.806,179.826 107.132 C 179.826 72.458,179.736 44.102,179.626 44.119 C 179.516 44.136,179.215 44.205,178.958 44.272 M220.174 107.132 C 220.174 141.659,220.264 169.964,220.374 170.032 C 220.484 170.100,220.544 141.948,220.507 107.473 C 220.452 57.446,220.506 44.746,220.774 44.576 C 221.014 44.424,220.976 44.362,220.641 44.359 C 220.197 44.356,220.174 47.521,220.174 107.132 M175.896 46.048 C 173.357 47.544,173.048 47.913,175.418 46.619 C 177.612 45.421,178.443 44.885,178.082 44.902 C 177.939 44.908,176.956 45.424,175.896 46.048 M143.687 47.447 C 143.283 47.667,142.953 47.902,142.953 47.971 C 142.953 48.229,143.375 48.067,144.021 47.562 C 144.815 46.941,144.697 46.900,143.687 47.447 M170.875 48.930 C 169.552 49.680,168.350 50.419,168.203 50.571 C 167.955 50.829,169.576 49.976,172.278 48.429 C 173.238 47.879,173.636 47.557,173.347 47.563 C 173.310 47.564,172.198 48.179,170.875 48.930 M140.147 49.470 C 137.910 50.734,136.366 51.794,137.876 51.030 C 140.084 49.911,143.107 48.047,142.619 48.104 C 142.582 48.108,141.470 48.723,140.147 49.470 M166.934 51.188 C 165.935 51.730,165.996 51.956,167.001 51.436 C 167.442 51.208,167.802 50.965,167.802 50.895 C 167.802 50.723,167.774 50.733,166.934 51.188 M136.206 51.723 C 135.207 52.265,135.268 52.490,136.273 51.971 C 136.713 51.743,137.074 51.499,137.074 51.429 C 137.074 51.257,137.045 51.267,136.206 51.723 M163.876 52.869 C 162.966 53.412,162.124 53.963,162.006 54.094 C 161.756 54.371,165.405 52.415,165.785 52.068 C 166.351 51.552,165.451 51.930,163.876 52.869 M133.120 53.484 C 132.048 54.083,131.220 54.622,131.280 54.682 C 131.398 54.800,135.204 52.666,135.204 52.482 C 135.204 52.319,135.232 52.306,133.120 53.484 M157.335 56.605 C 154.729 58.133,153.276 59.193,155.511 57.936 C 156.172 57.564,157.525 56.811,158.517 56.262 C 160.182 55.341,160.630 55.008,160.120 55.067 C 160.010 55.079,158.756 55.772,157.335 56.605 M128.724 55.998 C 127.725 56.540,127.786 56.765,128.791 56.246 C 129.232 56.018,129.593 55.774,129.593 55.705 C 129.593 55.533,129.564 55.542,128.724 55.998 M125.797 57.664 C 123.381 59.021,123.106 59.399,125.451 58.138 C 127.132 57.234,128.039 56.637,127.709 56.652 C 127.643 56.655,126.782 57.111,125.797 57.664 M150.768 60.400 C 149.703 60.991,148.831 61.541,148.831 61.622 C 148.831 61.780,152.270 59.935,152.692 59.550 C 153.160 59.123,152.718 59.319,150.768 60.400 M120.938 60.485 C 119.894 61.117,119.190 62.047,119.192 62.792 C 119.192 63.013,119.354 62.822,119.551 62.369 C 119.883 61.607,120.489 61.010,121.748 60.203 C 122.669 59.612,121.987 59.850,120.938 60.485 M147.695 62.143 C 146.696 62.685,146.757 62.911,147.762 62.391 C 148.203 62.163,148.564 61.920,148.564 61.850 C 148.564 61.678,148.535 61.688,147.695 62.143 M143.280 64.634 C 141.074 65.978,140.791 66.322,142.819 65.195 C 144.792 64.099,145.557 63.591,145.216 63.603 C 145.074 63.608,144.202 64.072,143.280 64.634 M138.214 67.557 C 136.710 68.410,135.387 69.209,135.275 69.333 C 135.021 69.612,135.012 69.617,138.343 67.747 C 140.668 66.442,141.371 65.983,141.015 66.002 C 140.979 66.004,139.718 66.704,138.214 67.557 M132.276 70.975 C 131.769 71.336,131.288 71.701,131.208 71.788 C 130.965 72.050,132.628 71.145,133.200 70.704 C 134.072 70.030,133.279 70.263,132.276 70.975 M265.989 84.436 C 265.989 92.151,266.024 95.307,266.065 91.450 C 266.107 87.592,266.107 81.279,266.065 77.422 C 266.024 73.564,265.989 76.720,265.989 84.436 M128.061 73.425 C 126.557 74.264,125.324 75.033,125.322 75.135 C 125.319 75.237,126.580 74.596,128.123 73.710 C 129.666 72.825,130.929 72.050,130.929 71.989 C 130.929 71.821,130.992 71.790,128.061 73.425 M119.185 73.927 C 119.171 74.537,120.591 76.157,121.129 76.145 C 121.302 76.141,121.115 75.934,120.713 75.686 C 120.312 75.437,119.807 74.809,119.591 74.290 C 119.292 73.569,119.196 73.483,119.185 73.927 M122.047 76.341 C 122.380 76.405,122.861 76.403,123.116 76.336 C 123.371 76.269,123.100 76.217,122.512 76.220 C 121.924 76.223,121.715 76.277,122.047 76.341 M121.154 99.917 C 120.417 100.226,119.169 101.729,119.182 102.292 C 119.188 102.544,119.347 102.390,119.546 101.937 C 120.352 100.111,120.519 100.067,126.520 100.067 C 132.521 100.067,132.687 100.111,133.493 101.937 C 133.688 102.378,133.852 102.594,133.857 102.417 C 133.877 101.814,133.298 100.869,132.580 100.334 C 131.796 99.749,122.375 99.405,121.154 99.917 M133.932 123.583 C 133.872 143.187,133.896 144.444,134.335 144.714 C 135.627 145.505,138.516 147.020,138.323 146.805 C 138.202 146.670,137.240 146.074,136.186 145.479 L 134.269 144.399 134.132 123.569 L 133.996 102.739 133.932 123.583 M265.989 131.196 C 265.989 138.323,266.023 141.239,266.065 137.675 C 266.107 134.112,266.107 128.280,266.065 124.716 C 266.023 121.152,265.989 124.068,265.989 131.196 M138.677 147.080 C 138.677 147.154,139.038 147.401,139.479 147.629 C 139.920 147.857,140.281 147.983,140.281 147.910 C 140.281 147.836,139.920 147.589,139.479 147.361 C 139.038 147.133,138.677 147.007,138.677 147.080 M140.548 148.117 C 140.548 148.267,144.244 150.434,144.499 150.434 C 144.829 150.434,144.112 149.947,142.351 148.977 C 141.359 148.431,140.548 148.043,140.548 148.117 M144.823 150.519 C 144.823 150.595,146.176 151.431,147.829 152.377 C 151.473 154.461,152.037 154.762,152.037 154.613 C 152.037 154.550,150.805 153.802,149.299 152.950 C 147.792 152.098,146.169 151.172,145.691 150.892 C 145.214 150.611,144.823 150.443,144.823 150.519 M119.172 151.801 C 119.171 152.553,120.166 153.536,122.036 154.631 C 124.948 156.337,127.071 157.487,126.842 157.235 C 126.726 157.107,125.163 156.156,123.369 155.121 C 120.771 153.623,120.012 153.049,119.640 152.305 C 119.383 151.790,119.172 151.564,119.172 151.801 M153.774 155.700 C 154.138 156.073,157.851 158.073,157.515 157.715 C 157.368 157.558,156.406 156.979,155.377 156.428 C 154.349 155.877,153.627 155.550,153.774 155.700 M127.188 157.483 C 127.188 157.546,127.879 157.985,128.724 158.459 C 129.569 158.932,130.772 159.617,131.396 159.979 C 132.021 160.342,132.532 160.581,132.532 160.510 C 132.532 160.374,129.513 158.552,128.056 157.810 C 127.578 157.567,127.188 157.419,127.188 157.483 M157.916 158.036 C 157.916 158.109,158.277 158.356,158.717 158.584 C 159.158 158.812,159.519 158.938,159.519 158.865 C 159.519 158.791,159.158 158.545,158.717 158.317 C 158.277 158.089,157.916 157.962,157.916 158.036 M159.786 159.072 C 159.786 159.222,163.482 161.389,163.738 161.389 C 164.068 161.389,163.350 160.903,161.590 159.933 C 160.598 159.386,159.786 158.999,159.786 159.072 M132.799 160.708 C 132.799 160.781,133.160 161.028,133.601 161.256 C 134.041 161.484,134.402 161.610,134.402 161.537 C 134.402 161.463,134.041 161.217,133.601 160.989 C 133.160 160.761,132.799 160.634,132.799 160.708 M165.397 162.276 C 165.397 162.410,168.716 164.369,170.407 165.234 C 172.005 166.051,171.299 165.456,169.472 164.446 C 168.480 163.897,167.158 163.154,166.533 162.794 C 165.908 162.435,165.397 162.201,165.397 162.276 M136.273 162.740 C 136.955 163.206,138.677 164.078,138.677 163.959 C 138.677 163.799,136.359 162.457,136.091 162.462 C 135.971 162.465,136.052 162.589,136.273 162.740 M138.945 164.181 C 138.945 164.255,139.305 164.501,139.746 164.729 C 140.187 164.957,140.548 165.084,140.548 165.010 C 140.548 164.937,140.187 164.690,139.746 164.462 C 139.305 164.234,138.945 164.108,138.945 164.181 M140.815 165.215 C 140.815 165.334,143.898 167.171,145.558 168.041 C 146.841 168.713,146.077 168.074,144.623 167.259 C 143.778 166.786,142.575 166.102,141.951 165.739 C 141.326 165.376,140.815 165.141,140.815 165.215 M146.560 168.540 C 147.031 168.998,149.471 170.327,149.283 170.023 C 149.184 169.863,148.470 169.405,147.698 169.006 C 146.925 168.607,146.413 168.397,146.560 168.540 M149.780 170.433 C 150.176 170.785,153.641 172.653,153.641 172.514 C 153.641 172.446,152.788 171.900,151.747 171.299 C 149.939 170.257,149.230 169.944,149.780 170.433 M154.041 172.802 C 154.188 172.952,155.150 173.531,156.179 174.087 C 157.208 174.644,157.929 174.977,157.782 174.827 C 157.635 174.677,156.673 174.098,155.645 173.541 C 154.616 172.984,153.894 172.651,154.041 172.802 M158.317 175.204 C 158.464 175.356,159.185 175.816,159.920 176.228 C 160.655 176.639,161.136 176.851,160.989 176.699 C 160.842 176.548,160.120 176.087,159.385 175.676 C 158.651 175.265,158.170 175.053,158.317 175.204 M161.389 176.983 C 161.389 177.127,165.094 179.292,165.341 179.292 C 165.684 179.292,164.932 178.783,163.193 177.838 C 162.201 177.299,161.389 176.914,161.389 176.983 M167.669 180.556 C 168.190 181.051,170.031 182.061,169.835 181.744 C 169.726 181.567,169.134 181.170,168.519 180.862 C 167.904 180.554,167.522 180.416,167.669 180.556 M170.474 182.246 C 171.157 182.711,172.879 183.584,172.879 183.464 C 172.879 183.305,170.560 181.963,170.293 181.968 C 170.172 181.970,170.254 182.095,170.474 182.246 M173.146 183.658 C 173.146 183.808,176.848 185.972,177.104 185.972 C 177.343 185.972,176.470 185.403,174.683 184.395 C 173.838 183.918,173.146 183.586,173.146 183.658 M177.555 186.160 C 177.702 186.311,178.424 186.772,179.158 187.183 C 179.893 187.594,180.374 187.806,180.227 187.655 C 180.080 187.503,179.359 187.043,178.624 186.631 C 177.889 186.220,177.408 186.008,177.555 186.160 M181.986 188.753 C 182.095 188.859,186.443 191.387,187.373 191.885 C 187.631 192.023,187.842 192.085,187.842 192.023 C 187.842 191.877,182.309 188.644,182.060 188.644 C 181.958 188.644,181.925 188.693,181.986 188.753 M189.805 193.249 C 190.211 193.507,192.585 193.511,192.744 193.253 C 192.812 193.143,192.110 193.053,191.182 193.053 C 190.255 193.053,189.635 193.141,189.805 193.249 " stroke="none" fill="#3c94ac" fill-rule="evenodd"></path><path id="path4" d="M190.047 20.850 C 189.181 21.198,189.303 21.417,190.178 21.085 C 191.185 20.701,192.470 20.994,193.513 21.845 C 194.256 22.452,194.308 22.466,193.855 21.941 C 192.801 20.718,191.384 20.312,190.047 20.850 M207.199 20.964 C 206.733 21.313,206.782 21.322,207.682 21.052 C 208.424 20.830,208.944 20.830,209.686 21.052 C 210.586 21.322,210.635 21.313,210.169 20.964 C 209.884 20.750,209.216 20.574,208.684 20.574 C 208.152 20.574,207.484 20.750,207.199 20.964 M187.092 22.441 C 186.165 22.999,185.324 23.549,185.222 23.663 C 184.995 23.918,188.676 21.932,189.031 21.608 C 189.602 21.087,188.692 21.478,187.092 22.441 M205.696 22.244 L 205.077 23.113 205.009 106.955 L 204.941 190.798 205.493 191.881 C 206.530 193.912,209.168 194.475,210.960 193.048 C 211.402 192.696,211.337 192.700,210.564 193.076 C 208.730 193.968,206.856 193.514,205.815 191.925 C 205.368 191.242,205.344 187.006,205.344 107.159 L 205.344 23.113 205.963 22.244 C 206.304 21.767,206.523 21.376,206.449 21.376 C 206.376 21.376,206.037 21.767,205.696 22.244 M210.969 21.608 C 211.357 21.962,214.830 23.844,214.830 23.701 C 214.830 23.538,211.195 21.376,210.922 21.376 C 210.808 21.376,210.829 21.480,210.969 21.608 M194.654 107.148 C 194.654 153.367,194.685 172.275,194.723 149.165 C 194.760 126.055,194.760 88.240,194.723 65.130 C 194.685 42.021,194.654 60.929,194.654 107.148 M180.581 26.144 C 179.159 26.978,177.897 27.767,177.775 27.897 C 177.519 28.174,180.742 26.427,182.498 25.338 C 184.685 23.982,183.214 24.601,180.581 26.144 M217.502 25.338 C 219.351 26.485,222.311 28.097,222.311 27.957 C 222.311 27.807,216.721 24.580,216.473 24.588 C 216.377 24.590,216.840 24.928,217.502 25.338 M176.553 28.476 C 175.554 29.018,175.615 29.244,176.620 28.724 C 177.061 28.496,177.422 28.253,177.422 28.183 C 177.422 28.011,177.393 28.021,176.553 28.476 M222.578 28.165 C 222.578 28.216,223.691 28.892,225.050 29.669 C 226.409 30.445,228.033 31.373,228.657 31.731 C 229.282 32.089,229.793 32.323,229.793 32.250 C 229.793 32.177,228.384 31.294,226.661 30.287 C 223.646 28.525,222.578 27.970,222.578 28.165 M173.747 30.080 C 172.829 30.600,172.077 31.088,172.077 31.164 C 172.077 31.312,174.982 29.730,175.404 29.352 C 175.874 28.931,175.426 29.128,173.747 30.080 M170.942 31.683 C 169.943 32.224,170.004 32.450,171.009 31.931 C 171.450 31.703,171.810 31.459,171.810 31.389 C 171.810 31.217,171.782 31.227,170.942 31.683 M230.207 32.563 C 230.607 32.928,234.068 34.797,234.068 34.649 C 234.068 34.575,233.216 34.024,232.174 33.423 C 230.351 32.372,229.672 32.075,230.207 32.563 M167.199 33.767 C 165.784 34.637,165.597 34.907,166.867 34.245 C 168.238 33.530,168.808 33.140,168.470 33.145 C 168.323 33.148,167.751 33.428,167.199 33.767 M164.796 35.156 C 163.797 35.698,163.858 35.924,164.863 35.404 C 165.304 35.176,165.665 34.933,165.665 34.863 C 165.665 34.691,165.636 34.701,164.796 35.156 M234.335 34.856 C 234.335 34.929,234.696 35.176,235.137 35.404 C 235.578 35.632,235.939 35.759,235.939 35.685 C 235.939 35.612,235.578 35.365,235.137 35.137 C 234.696 34.909,234.335 34.783,234.335 34.856 M161.185 37.242 C 158.857 38.579,157.511 39.496,158.985 38.742 C 161.276 37.570,164.216 35.754,163.727 35.813 C 163.691 35.817,162.547 36.461,161.185 37.242 M236.206 35.906 C 236.206 36.012,239.390 37.899,240.949 38.715 C 242.422 39.487,241.351 38.677,239.479 37.604 C 236.806 36.071,236.206 35.759,236.206 35.906 M241.817 39.129 C 241.817 39.194,243.350 40.112,245.224 41.168 C 247.098 42.224,248.721 43.140,248.831 43.203 C 248.941 43.266,249.031 43.261,249.031 43.192 C 249.031 43.078,246.531 41.587,243.821 40.087 C 243.233 39.762,242.638 39.386,242.498 39.253 C 242.234 39.001,241.817 38.925,241.817 39.129 M154.776 40.894 C 153.711 41.485,152.839 42.035,152.839 42.116 C 152.839 42.275,156.278 40.430,156.700 40.044 C 157.168 39.618,156.726 39.813,154.776 40.894 M151.703 42.638 C 150.704 43.180,150.765 43.405,151.770 42.886 C 152.211 42.658,152.572 42.414,152.572 42.345 C 152.572 42.173,152.543 42.182,151.703 42.638 M146.379 45.650 C 144.060 47.010,142.512 48.070,143.889 47.356 C 144.713 46.929,149.217 44.320,149.343 44.197 C 149.776 43.774,148.580 44.360,146.379 45.650 M251.043 44.450 C 251.530 44.783,258.819 48.943,260.187 49.667 C 260.518 49.842,260.788 49.935,260.788 49.874 C 260.788 49.760,257.628 47.829,257.442 47.829 C 257.386 47.829,255.894 46.987,254.127 45.959 C 251.227 44.271,249.673 43.511,251.043 44.450 M178.156 45.043 C 177.157 45.585,177.218 45.810,178.223 45.291 C 178.664 45.063,179.025 44.819,179.025 44.749 C 179.025 44.577,178.996 44.587,178.156 45.043 M221.754 45.430 C 222.550 45.868,223.246 46.181,223.302 46.125 C 223.454 45.974,221.070 44.622,220.661 44.627 C 220.466 44.630,220.958 44.991,221.754 45.430 M175.993 46.257 C 175.429 46.555,175.023 46.855,175.091 46.924 C 175.219 47.051,177.154 45.995,177.154 45.799 C 177.154 45.647,177.135 45.655,175.993 46.257 M223.647 46.346 C 223.647 46.419,224.008 46.666,224.449 46.894 C 224.890 47.122,225.251 47.248,225.251 47.175 C 225.251 47.101,224.890 46.855,224.449 46.627 C 224.008 46.399,223.647 46.272,223.647 46.346 M227.239 48.505 C 227.524 48.721,227.878 48.898,228.025 48.898 C 228.172 48.898,228.058 48.721,227.773 48.505 C 227.488 48.290,227.134 48.113,226.987 48.113 C 226.840 48.113,226.954 48.290,227.239 48.505 M140.488 49.005 C 139.089 49.836,138.867 50.142,140.147 49.475 C 141.486 48.777,142.097 48.365,141.750 48.393 C 141.603 48.404,141.035 48.680,140.488 49.005 M169.618 49.915 C 168.633 50.469,167.731 51.028,167.614 51.157 C 167.366 51.432,171.019 49.474,171.396 49.129 C 171.858 48.708,171.430 48.897,169.618 49.915 M228.457 49.090 C 228.457 49.220,229.028 49.601,229.726 49.936 C 231.134 50.614,231.002 50.376,229.459 49.453 C 228.908 49.124,228.457 48.960,228.457 49.090 M231.129 50.591 C 231.129 50.792,236.783 54.020,236.911 53.892 C 237.024 53.780,235.907 53.105,232.532 51.246 C 231.760 50.821,231.129 50.526,231.129 50.591 M136.740 51.188 C 135.741 51.730,135.802 51.956,136.807 51.436 C 137.248 51.208,137.609 50.965,137.609 50.895 C 137.609 50.723,137.580 50.733,136.740 51.188 M262.391 50.895 C 262.391 50.965,262.782 51.211,263.260 51.443 L 264.128 51.863 263.497 51.316 C 262.906 50.803,262.391 50.607,262.391 50.895 M166.399 51.723 C 165.401 52.265,165.461 52.490,166.466 51.971 C 166.907 51.743,167.268 51.499,167.268 51.429 C 167.268 51.257,167.239 51.267,166.399 51.723 M133.652 52.902 C 132.725 53.460,131.883 54.010,131.782 54.124 C 131.555 54.379,135.235 52.393,135.591 52.068 C 136.162 51.548,135.252 51.939,133.652 52.902 M264.409 52.068 C 264.809 52.433,268.270 54.303,268.270 54.154 C 268.270 54.081,267.418 53.529,266.376 52.929 C 264.552 51.878,263.874 51.581,264.409 52.068 M163.928 53.173 C 163.193 53.609,162.691 53.968,162.811 53.970 C 163.073 53.975,165.397 52.636,165.397 52.480 C 165.397 52.308,165.338 52.336,163.928 53.173 M238.658 54.901 C 238.994 55.259,242.428 57.193,242.536 57.085 C 242.595 57.027,242.126 56.679,241.495 56.313 C 239.954 55.419,238.435 54.663,238.658 54.901 M128.056 56.125 C 126.991 56.716,126.119 57.266,126.119 57.347 C 126.119 57.505,129.558 55.660,129.980 55.275 C 130.448 54.848,130.006 55.044,128.056 56.125 M270.942 55.804 C 272.830 56.983,275.752 58.577,275.752 58.428 C 275.752 58.354,274.477 57.562,272.919 56.668 C 270.003 54.995,268.812 54.474,270.942 55.804 M158.918 55.998 C 157.919 56.540,157.980 56.765,158.985 56.246 C 159.426 56.018,159.786 55.774,159.786 55.705 C 159.786 55.533,159.758 55.542,158.918 55.998 M156.755 57.212 C 156.190 57.510,155.784 57.810,155.853 57.879 C 155.980 58.006,157.916 56.950,157.916 56.754 C 157.916 56.602,157.896 56.610,156.755 57.212 M242.886 57.301 C 242.886 57.374,243.246 57.621,243.687 57.849 C 244.128 58.077,244.489 58.203,244.489 58.130 C 244.489 58.056,244.128 57.810,243.687 57.582 C 243.246 57.354,242.886 57.227,242.886 57.301 M124.983 57.868 C 123.984 58.410,124.045 58.636,125.050 58.116 C 125.491 57.888,125.852 57.645,125.852 57.575 C 125.852 57.403,125.823 57.413,124.983 57.868 M154.643 58.403 C 153.644 58.945,153.705 59.170,154.709 58.651 C 155.150 58.423,155.511 58.179,155.511 58.109 C 155.511 57.937,155.482 57.947,154.643 58.403 M244.756 58.330 C 244.756 58.404,246.109 59.243,247.762 60.195 C 251.247 62.203,251.971 62.587,251.971 62.429 C 251.971 62.366,250.738 61.617,249.232 60.766 C 247.725 59.914,246.102 58.988,245.625 58.707 C 245.147 58.427,244.756 58.257,244.756 58.330 M276.019 58.632 C 276.019 58.696,276.912 59.256,278.003 59.877 C 281.114 61.647,280.867 59.788,280.774 80.748 C 280.721 92.808,280.784 98.749,280.962 98.571 C 281.567 97.965,281.300 62.779,280.682 61.728 C 280.083 60.707,276.019 58.010,276.019 58.632 M121.527 59.862 C 120.985 60.148,120.472 60.497,120.385 60.637 C 120.299 60.777,120.772 60.587,121.437 60.216 C 122.101 59.844,122.645 59.490,122.645 59.429 C 122.645 59.274,122.627 59.282,121.527 59.862 M151.436 60.273 C 150.437 60.815,150.498 61.041,151.503 60.521 C 151.944 60.293,152.305 60.049,152.305 59.980 C 152.305 59.808,152.276 59.818,151.436 60.273 M119.312 61.710 C 118.977 62.358,118.915 63.557,118.962 68.457 L 119.019 74.415 119.162 68.270 C 119.262 63.988,119.409 61.942,119.649 61.523 C 119.838 61.192,119.931 60.922,119.856 60.922 C 119.781 60.922,119.536 61.277,119.312 61.710 M148.509 61.939 C 146.094 63.296,145.818 63.674,148.163 62.413 C 149.844 61.509,150.751 60.912,150.421 60.927 C 150.355 60.930,149.495 61.386,148.509 61.939 M252.238 62.603 C 252.238 62.828,256.014 64.984,256.158 64.840 C 256.233 64.764,255.894 64.497,255.402 64.247 C 254.911 63.996,253.998 63.495,253.373 63.133 C 252.749 62.771,252.238 62.532,252.238 62.603 M144.095 64.454 C 143.033 65.066,142.205 65.607,142.254 65.657 C 142.359 65.762,146.159 63.602,146.159 63.437 C 146.159 63.265,146.141 63.274,144.095 64.454 M257.983 65.911 C 258.480 66.391,263.500 69.255,263.624 69.130 C 263.693 69.062,262.511 68.312,260.999 67.463 C 257.680 65.600,257.637 65.578,257.983 65.911 M139.679 66.953 C 138.680 67.495,138.741 67.721,139.746 67.201 C 140.187 66.973,140.548 66.730,140.548 66.660 C 140.548 66.488,140.519 66.498,139.679 66.953 M136.594 68.715 C 135.521 69.313,134.693 69.852,134.753 69.913 C 134.871 70.030,138.677 67.896,138.677 67.712 C 138.677 67.550,138.705 67.537,136.594 68.715 M265.598 84.394 C 265.747 100.424,265.641 99.598,267.678 100.579 C 268.613 101.030,278.519 101.228,278.783 100.802 C 278.852 100.691,276.582 100.638,273.740 100.684 C 265.203 100.820,265.867 102.207,265.866 84.251 C 265.866 76.581,265.775 70.250,265.665 70.181 C 265.554 70.113,265.524 76.509,265.598 84.394 M130.127 72.545 C 129.319 73.053,128.732 73.471,128.824 73.474 C 129.099 73.484,131.446 72.121,131.610 71.856 C 131.836 71.489,131.727 71.540,130.127 72.545 M126.319 74.702 C 125.320 75.244,125.381 75.470,126.386 74.950 C 126.827 74.722,127.188 74.478,127.188 74.409 C 127.188 74.237,127.159 74.246,126.319 74.702 M119.398 74.993 C 119.824 75.810,121.354 76.687,122.353 76.687 C 123.127 76.687,125.317 75.790,125.317 75.473 C 125.317 75.400,124.841 75.583,124.259 75.880 C 122.546 76.754,121.075 76.514,119.792 75.153 C 119.248 74.576,119.163 74.541,119.398 74.993 M279.738 99.837 C 279.122 100.507,279.119 100.526,279.678 100.235 C 280.298 99.913,280.692 99.440,280.500 99.248 C 280.437 99.185,280.094 99.450,279.738 99.837 M121.402 99.603 C 121.232 99.711,123.535 99.800,126.520 99.800 C 129.504 99.800,131.807 99.711,131.638 99.603 C 131.468 99.495,129.165 99.407,126.520 99.407 C 123.874 99.407,121.571 99.495,121.402 99.603 M119.971 100.469 C 119.631 100.764,119.412 101.064,119.484 101.136 C 119.556 101.208,119.897 100.967,120.241 100.600 C 120.994 99.799,120.833 99.722,119.971 100.469 M132.764 100.455 C 133.113 100.758,133.558 101.456,133.755 102.006 C 133.951 102.556,134.117 102.790,134.123 102.525 C 134.142 101.773,133.388 100.513,132.729 100.193 C 132.147 99.911,132.148 99.918,132.764 100.455 M119.083 101.715 C 118.985 101.813,118.904 113.187,118.904 126.991 C 118.904 155.129,118.753 153.049,120.884 154.160 C 121.485 154.473,121.740 154.574,121.449 154.385 C 121.159 154.196,120.526 153.661,120.044 153.197 L 119.166 152.353 119.236 126.945 C 119.274 112.970,119.295 101.536,119.283 101.536 C 119.271 101.536,119.181 101.617,119.083 101.715 M271.023 115.897 C 272.463 115.946,274.748 115.945,276.099 115.897 C 277.451 115.849,276.273 115.809,273.480 115.809 C 270.688 115.810,269.582 115.849,271.023 115.897 M266.652 116.915 L 265.731 117.865 265.657 130.864 C 265.589 142.719,265.542 143.908,265.123 144.382 C 264.679 144.883,264.683 144.890,265.264 144.585 L 265.865 144.270 265.865 131.440 C 265.865 117.503,265.843 117.721,267.365 116.523 C 267.756 116.216,267.962 115.965,267.824 115.965 C 267.686 115.965,267.159 116.393,266.652 116.915 M279.232 116.421 C 279.596 116.671,280.040 117.062,280.219 117.289 C 280.416 117.539,280.547 117.578,280.553 117.387 C 280.562 117.028,279.300 115.965,278.862 115.965 C 278.703 115.965,278.869 116.170,279.232 116.421 M280.695 135.204 C 280.695 146.765,280.784 152.456,280.962 152.278 C 281.134 152.105,281.229 146.052,281.229 135.204 C 281.229 124.355,281.134 118.302,280.962 118.130 C 280.784 117.952,280.695 123.643,280.695 135.204 M134.280 144.308 C 134.454 144.588,136.540 145.707,136.540 145.519 C 136.540 145.455,135.996 145.099,135.331 144.727 C 134.666 144.356,134.193 144.167,134.280 144.308 M262.452 145.863 C 260.245 147.207,259.962 147.551,261.991 146.424 C 263.964 145.328,264.729 144.820,264.388 144.832 C 264.245 144.838,263.374 145.301,262.452 145.863 M138.277 146.616 C 138.424 146.766,139.385 147.345,140.414 147.902 C 141.443 148.459,142.164 148.792,142.017 148.641 C 141.870 148.491,140.908 147.912,139.880 147.355 C 138.851 146.798,138.130 146.466,138.277 146.616 M259.452 147.582 C 257.869 148.414,254.375 150.491,254.375 150.601 C 254.375 150.754,255.035 150.412,257.916 148.765 C 259.202 148.030,260.254 147.383,260.254 147.328 C 260.254 147.177,260.177 147.201,259.452 147.582 M146.033 151.057 C 147.031 151.730,149.633 153.145,149.633 153.015 C 149.633 152.866,145.931 150.701,145.675 150.701 C 145.582 150.701,145.743 150.861,146.033 151.057 M251.666 152.051 L 251.035 152.598 251.904 152.177 C 252.758 151.763,253.002 151.503,252.535 151.503 C 252.404 151.503,252.013 151.749,251.666 152.051 M248.816 153.637 C 247.889 154.195,247.047 154.745,246.945 154.859 C 246.719 155.114,250.399 153.128,250.755 152.803 C 251.325 152.283,250.416 152.674,248.816 153.637 M279.271 153.795 C 278.635 154.298,278.186 154.709,278.273 154.709 C 278.595 154.709,280.287 153.495,280.413 153.173 C 280.580 152.747,280.629 152.721,279.271 153.795 M149.900 153.226 C 149.900 153.300,150.261 153.546,150.701 153.774 C 151.142 154.002,151.503 154.129,151.503 154.055 C 151.503 153.982,151.142 153.735,150.701 153.507 C 150.261 153.279,149.900 153.153,149.900 153.226 M151.904 154.376 C 152.051 154.533,153.013 155.111,154.041 155.663 C 155.070 156.214,155.792 156.541,155.645 156.391 C 155.281 156.018,151.568 154.018,151.904 154.376 M275.141 156.223 C 273.702 157.045,272.581 157.774,272.649 157.841 C 272.771 157.964,277.889 155.003,277.889 154.810 C 277.889 154.651,277.890 154.650,275.141 156.223 M244.088 156.344 C 241.843 157.619,240.322 158.667,241.817 157.910 C 243.150 157.235,246.627 155.194,246.627 155.087 C 246.627 154.906,246.589 154.925,244.088 156.344 M123.580 155.701 C 123.727 155.851,124.689 156.430,125.718 156.987 C 126.747 157.544,127.468 157.876,127.321 157.726 C 127.174 157.576,126.212 156.997,125.184 156.440 C 124.155 155.883,123.434 155.550,123.580 155.701 M157.381 157.501 C 157.381 157.575,157.742 157.821,158.183 158.049 C 158.624 158.277,158.985 158.404,158.985 158.330 C 158.985 158.257,158.624 158.010,158.183 157.782 C 157.742 157.554,157.381 157.428,157.381 157.501 M127.722 158.036 C 127.722 158.109,128.083 158.356,128.524 158.584 C 128.965 158.812,129.325 158.938,129.325 158.865 C 129.325 158.791,128.965 158.545,128.524 158.317 C 128.083 158.089,127.722 157.962,127.722 158.036 M269.279 159.578 C 267.703 160.484,266.459 161.271,266.515 161.327 C 266.624 161.436,272.278 158.193,272.278 158.020 C 272.278 157.854,272.282 157.852,269.279 159.578 M240.147 158.603 C 239.148 159.145,239.209 159.371,240.214 158.851 C 240.655 158.623,241.015 158.379,241.015 158.310 C 241.015 158.138,240.987 158.148,240.147 158.603 M159.252 158.578 C 159.252 158.649,159.733 158.952,160.321 159.252 C 161.645 159.928,161.724 159.769,160.439 159.011 C 159.460 158.433,159.252 158.358,159.252 158.578 M129.593 159.076 C 129.593 159.225,133.294 161.389,133.550 161.389 C 133.790 161.389,132.916 160.820,131.129 159.812 C 130.284 159.335,129.593 159.004,129.593 159.076 M236.412 160.696 C 232.284 163.164,233.394 162.762,238.009 160.119 C 239.082 159.505,239.398 159.220,238.945 159.277 C 238.834 159.291,237.695 159.930,236.412 160.696 M161.657 159.906 C 161.657 159.980,162.017 160.226,162.458 160.454 C 162.899 160.682,163.260 160.809,163.260 160.735 C 163.260 160.662,162.899 160.415,162.458 160.187 C 162.017 159.959,161.657 159.833,161.657 159.906 M135.204 162.311 C 135.204 162.384,135.564 162.631,136.005 162.859 C 136.446 163.087,136.807 163.213,136.807 163.140 C 136.807 163.066,136.446 162.820,136.005 162.592 C 135.564 162.364,135.204 162.237,135.204 162.311 M261.791 163.846 C 260.212 164.749,258.970 165.539,259.032 165.600 C 259.151 165.719,264.796 162.487,264.796 162.300 C 264.796 162.127,264.805 162.122,261.791 163.846 M166.466 162.740 C 167.149 163.206,168.871 164.078,168.871 163.959 C 168.871 163.799,166.552 162.457,166.285 162.462 C 166.164 162.465,166.246 162.589,166.466 162.740 M230.548 164.020 C 229.126 164.854,227.863 165.644,227.742 165.777 C 227.470 166.074,227.447 166.086,230.795 164.206 C 232.301 163.361,233.534 162.622,233.534 162.564 C 233.534 162.322,233.003 162.581,230.548 164.020 M137.074 163.362 C 137.074 163.562,139.008 164.622,139.138 164.492 C 139.207 164.423,138.771 164.115,138.169 163.807 C 137.567 163.500,137.074 163.300,137.074 163.362 M169.138 164.181 C 169.138 164.255,169.499 164.501,169.940 164.729 C 170.381 164.957,170.741 165.084,170.741 165.010 C 170.741 164.937,170.381 164.690,169.940 164.462 C 169.499 164.234,169.138 164.108,169.138 164.181 M139.479 164.716 C 139.479 164.789,139.840 165.036,140.281 165.264 C 140.721 165.492,141.082 165.618,141.082 165.545 C 141.082 165.471,140.721 165.225,140.281 164.997 C 139.840 164.769,139.479 164.642,139.479 164.716 M171.009 165.213 C 171.009 165.287,171.520 165.639,172.144 165.997 C 175.247 167.774,176.353 168.364,176.353 168.242 C 176.353 168.169,175.661 167.720,174.816 167.245 C 173.971 166.769,172.769 166.088,172.144 165.730 C 171.520 165.372,171.009 165.140,171.009 165.213 M142.685 166.549 C 142.685 166.623,143.196 166.975,143.821 167.333 C 146.924 169.110,148.029 169.700,148.029 169.578 C 148.029 169.505,147.338 169.056,146.493 168.581 C 145.648 168.105,144.446 167.424,143.821 167.066 C 143.196 166.708,142.685 166.476,142.685 166.549 M254.558 167.965 C 253.116 168.787,251.997 169.521,252.071 169.595 C 252.146 169.670,252.545 169.498,252.957 169.213 C 253.370 168.929,254.519 168.248,255.511 167.702 C 256.503 167.155,257.315 166.653,257.315 166.587 C 257.315 166.395,257.312 166.397,254.558 167.965 M223.981 167.815 C 222.916 168.406,222.044 168.956,222.044 169.037 C 222.044 169.195,225.483 167.350,225.905 166.965 C 226.373 166.538,225.931 166.734,223.981 167.815 M221.042 169.327 C 220.711 169.391,220.441 169.555,220.441 169.691 C 220.441 170.051,220.798 169.997,221.392 169.548 C 221.677 169.332,221.850 169.168,221.777 169.183 C 221.703 169.199,221.373 169.263,221.042 169.327 M250.835 170.093 C 249.836 170.635,249.897 170.860,250.902 170.341 C 251.343 170.113,251.703 169.869,251.703 169.799 C 251.703 169.627,251.675 169.637,250.835 170.093 M150.167 170.833 C 150.167 171.031,152.601 172.404,152.728 172.278 C 152.790 172.215,152.240 171.836,151.504 171.436 C 150.769 171.036,150.167 170.764,150.167 170.833 M248.430 171.461 C 247.733 171.849,247.212 172.218,247.274 172.279 C 247.393 172.398,249.833 171.035,249.833 170.850 C 249.833 170.685,249.791 170.703,248.430 171.461 M154.442 173.266 C 154.442 173.340,154.803 173.586,155.244 173.814 C 155.685 174.042,156.045 174.169,156.045 174.095 C 156.045 174.022,155.685 173.775,155.244 173.547 C 154.803 173.319,154.442 173.193,154.442 173.266 M242.801 174.651 C 241.358 175.469,240.229 176.190,240.292 176.253 C 240.403 176.364,244.901 173.836,245.411 173.375 C 245.902 172.932,245.400 173.178,242.801 174.651 M156.446 174.409 C 156.593 174.564,157.435 175.084,158.317 175.565 C 159.198 176.046,159.800 176.313,159.653 176.158 C 159.506 176.004,158.664 175.484,157.782 175.003 C 156.900 174.522,156.299 174.255,156.446 174.409 M239.078 176.773 C 238.674 176.992,238.343 177.216,238.343 177.271 C 238.343 177.500,239.419 177.068,239.703 176.725 C 240.085 176.264,240.004 176.270,239.078 176.773 M234.603 179.323 C 231.222 181.245,229.493 182.434,232.198 180.976 C 235.891 178.986,238.460 177.416,238.009 177.423 C 237.973 177.423,236.440 178.278,234.603 179.323 M163.260 178.343 C 163.260 178.416,163.621 178.663,164.061 178.891 C 164.502 179.119,164.863 179.246,164.863 179.172 C 164.863 179.099,164.502 178.852,164.061 178.624 C 163.621 178.396,163.260 178.270,163.260 178.343 M165.515 179.701 C 165.801 179.917,166.154 180.094,166.301 180.094 C 166.448 180.094,166.335 179.917,166.050 179.701 C 165.764 179.485,165.411 179.309,165.264 179.309 C 165.117 179.309,165.230 179.485,165.515 179.701 M169.405 181.782 C 169.405 181.995,173.205 184.132,173.342 183.995 C 173.408 183.928,173.061 183.669,172.570 183.418 C 172.079 183.168,171.166 182.667,170.541 182.304 C 169.916 181.942,169.405 181.707,169.405 181.782 M228.508 182.801 C 227.434 183.401,226.606 183.943,226.668 184.005 C 226.787 184.124,230.595 181.994,230.595 181.807 C 230.595 181.636,230.580 181.643,228.508 182.801 M224.115 185.323 C 223.116 185.865,223.177 186.091,224.182 185.571 C 224.623 185.343,224.983 185.100,224.983 185.030 C 224.983 184.858,224.955 184.868,224.115 185.323 M177.021 186.181 C 177.375 186.548,180.895 188.464,180.895 188.291 C 180.895 188.216,180.084 187.694,179.092 187.131 C 177.036 185.962,176.628 185.775,177.021 186.181 M220.901 187.105 C 219.905 187.698,219.144 188.238,219.210 188.304 C 219.332 188.426,223.113 186.267,223.113 186.075 C 223.113 185.849,222.636 186.071,220.901 187.105 M181.162 188.463 C 181.162 188.643,186.823 191.890,186.937 191.776 C 186.986 191.727,186.217 191.227,185.229 190.664 C 184.242 190.100,182.923 189.344,182.298 188.983 C 181.673 188.622,181.162 188.388,181.162 188.463 M215.839 190.039 C 214.263 190.945,213.019 191.732,213.075 191.787 C 213.184 191.897,218.838 188.653,218.838 188.481 C 218.838 188.315,218.842 188.313,215.839 190.039 M194.255 191.565 C 194.255 191.751,193.864 192.271,193.387 192.720 C 192.780 193.290,192.700 193.440,193.120 193.218 C 193.813 192.852,194.676 191.647,194.425 191.397 C 194.332 191.303,194.255 191.379,194.255 191.565 M190.715 193.642 C 191.045 193.706,191.587 193.706,191.917 193.642 C 192.248 193.578,191.977 193.526,191.316 193.526 C 190.655 193.526,190.384 193.578,190.715 193.642 M235.523 252.104 C 235.523 256.660,235.559 258.561,235.604 256.329 C 235.649 254.097,235.649 250.370,235.604 248.046 C 235.560 245.722,235.523 247.548,235.523 252.104 " stroke="none" fill="#476774" fill-rule="evenodd"></path></g></svg>