<svg id="svg" version="1.1" xmlns="http://www.w3.org/2000/svg" xmlns:xlink="http://www.w3.org/1999/xlink" width="400" height="200" viewBox="0, 0, 400,200"><g id="svgg"><path id="path0" d="M285.913 115.083 C 285.913 123.883,285.934 127.459,285.958 123.029 C 285.983 118.599,285.983 111.399,285.958 107.029 C 285.934 102.659,285.913 106.283,285.913 115.083 M356.062 102.167 C 356.062 103.129,356.089 103.523,356.123 103.042 C 356.157 102.560,356.157 101.773,356.123 101.292 C 356.089 100.810,356.062 101.204,356.062 102.167 M356.039 105.000 C 356.039 105.321,356.073 105.452,356.115 105.292 C 356.157 105.131,356.157 104.869,356.115 104.708 C 356.073 104.548,356.039 104.679,356.039 105.000 M356.057 108.250 C 356.058 108.983,356.087 109.263,356.122 108.871 C 356.157 108.479,356.157 107.879,356.121 107.537 C 356.085 107.196,356.057 107.517,356.057 108.250 M356.065 111.750 C 356.065 112.942,356.092 113.407,356.124 112.785 C 356.156 112.162,356.156 111.187,356.123 110.618 C 356.091 110.049,356.064 110.558,356.065 111.750 M356.048 115.917 C 356.049 116.375,356.081 116.543,356.120 116.289 C 356.158 116.036,356.157 115.661,356.117 115.456 C 356.078 115.251,356.046 115.458,356.048 115.917 M164.709 116.917 C 164.711 117.283,164.745 117.414,164.785 117.206 C 164.824 116.999,164.823 116.699,164.781 116.540 C 164.739 116.380,164.707 116.550,164.709 116.917 M356.052 118.083 C 356.053 118.633,356.084 118.838,356.121 118.539 C 356.158 118.239,356.157 117.789,356.119 117.539 C 356.081 117.288,356.051 117.533,356.052 118.083 M173.741 126.083 C 173.740 128.833,173.763 129.982,173.791 128.635 C 173.819 127.289,173.819 125.039,173.791 123.635 C 173.763 122.232,173.741 123.333,173.741 126.083 " stroke="none" fill="#14649c" fill-rule="evenodd"></path><path id="path1" d="M50.294 67.591 C 50.270 67.613,49.875 67.686,49.417 67.751 C 48.958 67.817,48.433 67.900,48.250 67.934 C 48.067 67.969,47.664 68.035,47.354 68.081 C 47.045 68.127,46.482 68.249,46.104 68.352 C 45.726 68.455,45.342 68.556,45.250 68.577 C 44.098 68.839,44.100 68.834,44.655 70.083 C 44.736 70.267,44.844 70.544,44.893 70.700 C 44.987 70.996,45.352 70.990,46.167 70.678 C 46.630 70.501,48.268 70.157,49.167 70.049 C 50.494 69.890,50.767 69.861,51.108 69.848 C 51.436 69.835,51.459 69.766,51.376 69.042 C 51.325 68.606,51.280 68.087,51.275 67.887 C 51.268 67.574,50.549 67.357,50.294 67.591 M55.924 67.885 C 55.714 68.876,55.750 69.834,55.999 69.851 C 57.756 69.975,61.500 70.664,61.500 70.864 C 61.500 71.132,62.179 70.994,62.267 70.708 C 62.317 70.548,62.427 70.286,62.512 70.127 C 62.597 69.968,62.667 69.702,62.667 69.536 C 62.667 69.369,62.757 69.143,62.867 69.033 C 63.022 68.878,63.004 68.829,62.783 68.813 C 62.482 68.790,62.194 68.730,62.125 68.675 C 62.044 68.609,60.423 68.240,59.667 68.115 C 59.529 68.092,59.342 68.027,59.250 67.971 C 59.158 67.914,58.521 67.815,57.833 67.749 C 57.146 67.684,56.452 67.605,56.292 67.575 C 56.103 67.539,55.975 67.647,55.924 67.885 M39.000 71.002 C 38.679 71.175,38.323 71.399,38.208 71.499 C 38.094 71.598,38.000 71.626,38.000 71.561 C 38.000 71.495,37.813 71.618,37.583 71.833 C 37.354 72.049,37.164 72.155,37.162 72.071 C 37.159 71.986,37.080 72.048,36.987 72.208 C 36.893 72.369,36.734 72.500,36.632 72.500 C 36.531 72.500,36.179 72.706,35.849 72.958 C 35.520 73.210,35.201 73.416,35.141 73.416 C 34.980 73.417,34.000 74.315,34.000 74.461 C 34.000 74.529,34.336 74.960,34.747 75.418 C 35.158 75.875,35.496 76.160,35.497 76.049 C 35.499 75.939,35.762 75.724,36.083 75.572 C 36.404 75.420,36.667 75.230,36.667 75.151 C 36.667 75.072,36.985 74.844,37.375 74.646 C 37.765 74.448,38.308 74.117,38.583 73.912 C 39.198 73.452,40.537 72.753,40.712 72.801 C 40.906 72.854,40.700 71.928,40.503 71.862 C 40.408 71.831,40.374 71.736,40.425 71.652 C 40.477 71.569,40.448 71.500,40.361 71.500 C 40.274 71.500,40.156 71.313,40.098 71.083 C 39.975 70.591,39.784 70.577,39.000 71.002 M67.333 70.795 C 67.196 70.828,66.889 71.254,66.652 71.741 L 66.221 72.627 66.678 72.897 C 66.929 73.045,67.229 73.167,67.343 73.167 C 67.458 73.167,67.820 73.371,68.147 73.621 C 68.475 73.871,68.833 74.088,68.944 74.105 C 69.055 74.121,69.315 74.291,69.521 74.484 C 69.727 74.676,69.957 74.833,70.031 74.833 C 70.106 74.833,70.303 74.965,70.470 75.125 C 71.640 76.251,71.858 76.269,72.583 75.301 C 72.675 75.179,72.848 74.954,72.968 74.802 C 73.210 74.495,72.664 73.667,72.220 73.667 C 72.099 73.667,72.000 73.592,72.000 73.500 C 72.000 73.408,71.894 73.333,71.764 73.333 C 71.634 73.333,71.503 73.277,71.472 73.208 C 71.442 73.140,71.079 72.859,70.667 72.584 C 70.254 72.309,69.879 72.046,69.833 71.999 C 69.787 71.952,69.300 71.692,68.750 71.422 C 68.200 71.152,67.712 70.887,67.667 70.833 C 67.621 70.779,67.471 70.762,67.333 70.795 M30.333 77.605 C 30.332 77.685,30.125 77.975,29.872 78.250 C 29.619 78.525,29.271 78.975,29.098 79.250 C 28.926 79.525,28.685 79.862,28.563 80.000 C 27.792 80.871,27.317 81.500,27.428 81.500 C 27.500 81.500,27.404 81.669,27.215 81.875 C 26.553 82.599,26.192 83.500,26.563 83.500 C 26.689 83.500,26.886 83.612,27.000 83.750 C 27.114 83.887,27.348 84.000,27.520 84.000 C 27.693 84.000,27.833 84.059,27.833 84.131 C 27.833 84.542,28.474 84.239,28.755 83.696 C 28.930 83.359,29.244 82.871,29.453 82.612 C 29.662 82.353,29.833 82.051,29.833 81.941 C 29.833 81.831,29.965 81.617,30.125 81.465 C 30.285 81.314,30.604 80.947,30.833 80.650 C 31.063 80.353,31.451 79.892,31.696 79.626 L 32.143 79.142 31.530 78.520 C 30.768 77.747,30.334 77.415,30.333 77.605 M75.860 78.327 C 75.034 79.113,75.017 79.254,75.662 80.006 C 76.587 81.086,77.667 82.495,77.667 82.623 C 77.667 82.693,77.854 82.968,78.084 83.234 C 78.313 83.501,78.500 83.810,78.500 83.922 C 78.500 84.429,78.935 84.491,79.552 84.072 C 79.890 83.842,80.167 83.706,80.167 83.770 C 80.167 83.833,80.318 83.748,80.504 83.580 C 80.761 83.347,80.791 83.243,80.629 83.143 C 80.512 83.071,80.413 82.953,80.409 82.881 C 80.393 82.602,79.668 81.394,79.255 80.958 C 79.015 80.706,78.865 80.500,78.921 80.500 C 79.075 80.500,78.456 79.683,77.599 78.754 C 77.178 78.297,76.833 77.866,76.833 77.795 C 76.833 77.524,76.529 77.690,75.860 78.327 M52.147 79.111 C 50.959 80.080,49.500 82.363,49.500 83.251 C 49.500 83.400,49.433 83.648,49.350 83.803 C 49.268 83.957,49.156 84.364,49.101 84.707 C 49.047 85.050,48.923 85.650,48.826 86.041 C 48.671 86.663,48.603 87.003,48.521 87.562 C 48.510 87.642,48.386 87.613,48.246 87.497 C 48.106 87.381,47.949 87.329,47.896 87.382 C 47.842 87.435,47.619 87.410,47.400 87.327 C 47.059 87.197,47.000 87.225,47.000 87.515 C 47.000 87.702,46.936 87.982,46.857 88.136 C 46.628 88.584,46.485 89.529,46.662 89.419 C 46.749 89.366,46.954 89.392,47.118 89.476 C 47.282 89.561,47.619 89.710,47.866 89.808 C 48.257 89.962,48.298 90.044,48.187 90.450 C 48.117 90.707,48.067 91.217,48.076 91.583 C 48.093 92.221,47.431 93.000,46.873 93.000 C 46.794 93.000,46.513 93.225,46.250 93.500 C 45.987 93.775,45.679 94.000,45.566 94.000 C 45.453 94.000,45.330 94.094,45.291 94.208 C 45.177 94.547,44.632 94.206,43.000 92.779 C 42.771 92.579,42.380 92.256,42.131 92.063 C 41.882 91.869,41.716 91.673,41.763 91.626 C 41.809 91.580,41.638 91.360,41.382 91.139 C 39.833 89.799,40.349 88.175,41.973 89.277 C 43.582 90.370,45.425 89.691,45.624 87.934 C 45.869 85.755,43.523 84.515,41.958 85.996 C 41.660 86.277,41.229 86.550,41.000 86.601 C 38.530 87.157,37.448 88.918,38.426 90.792 C 38.557 91.044,38.665 91.337,38.666 91.444 C 38.666 91.551,38.892 91.851,39.167 92.110 C 39.442 92.370,39.667 92.636,39.667 92.701 C 39.667 92.902,41.124 94.333,41.328 94.333 C 41.434 94.333,41.473 94.408,41.417 94.500 C 41.360 94.592,41.389 94.667,41.481 94.667 C 41.573 94.667,41.934 94.929,42.282 95.249 C 42.631 95.570,42.979 95.832,43.056 95.833 C 43.132 95.833,43.168 95.914,43.135 96.013 C 43.102 96.111,43.021 96.186,42.954 96.179 C 42.812 96.164,40.833 98.117,40.833 98.272 C 40.833 98.330,40.627 98.555,40.375 98.772 C 40.123 98.989,39.985 99.166,40.067 99.166 C 40.150 99.167,40.107 99.298,39.971 99.458 C 39.533 99.974,38.842 101.286,38.950 101.395 C 39.008 101.453,38.980 101.500,38.888 101.500 C 38.581 101.500,38.655 102.946,39.003 103.758 C 39.189 104.192,39.384 104.505,39.435 104.454 C 39.486 104.403,39.672 104.505,39.847 104.681 C 40.023 104.856,40.317 105.009,40.500 105.021 C 40.861 105.043,41.142 105.101,41.208 105.166 C 41.326 105.282,42.712 105.264,43.667 105.135 C 44.262 105.054,45.040 104.951,45.394 104.906 C 45.748 104.861,46.180 104.749,46.352 104.656 C 46.525 104.564,46.667 104.525,46.667 104.569 C 46.667 104.613,46.929 104.540,47.250 104.406 C 47.571 104.272,47.833 104.212,47.833 104.274 C 47.833 104.335,47.973 104.259,48.143 104.105 C 48.419 103.855,48.475 103.852,48.663 104.079 C 48.779 104.219,48.833 104.333,48.782 104.333 C 48.731 104.333,48.763 104.577,48.852 104.875 C 48.942 105.173,49.054 105.713,49.101 106.074 C 49.148 106.436,49.238 106.811,49.299 106.907 C 49.361 107.004,49.415 107.121,49.420 107.167 C 49.464 107.621,50.520 110.055,50.709 110.139 C 50.779 110.170,50.800 110.252,50.757 110.322 C 50.683 110.442,51.459 111.319,52.079 111.814 C 52.569 112.206,54.093 112.202,54.801 111.807 C 55.434 111.455,56.115 110.837,55.881 110.828 C 55.809 110.825,55.862 110.731,56.000 110.620 C 56.137 110.508,56.424 110.060,56.637 109.625 C 56.852 109.184,57.139 108.833,57.284 108.833 C 57.729 108.833,58.682 108.146,58.872 107.687 C 59.861 105.296,57.225 103.311,55.319 105.013 C 54.715 105.552,54.423 107.246,54.885 107.532 C 55.114 107.673,54.784 108.700,54.358 109.172 C 54.207 109.339,53.987 109.594,53.869 109.738 C 53.652 110.002,52.833 109.687,52.833 109.340 C 52.833 109.273,52.683 109.045,52.500 108.833 C 52.317 108.622,52.167 108.315,52.167 108.151 C 52.167 107.987,52.102 107.813,52.023 107.764 C 51.944 107.715,51.786 107.317,51.673 106.879 C 51.560 106.442,51.424 105.971,51.371 105.833 C 51.317 105.696,51.257 105.471,51.238 105.333 C 51.218 105.196,51.121 104.746,51.022 104.333 C 50.700 102.996,50.625 103.084,53.000 102.027 C 53.617 101.753,54.333 101.657,54.333 101.849 C 54.333 101.946,54.982 102.190,55.361 102.236 C 55.422 102.244,55.528 102.306,55.597 102.375 C 55.666 102.444,55.863 102.500,56.034 102.500 C 56.206 102.500,56.641 102.650,57.002 102.834 C 57.362 103.018,57.903 103.200,58.203 103.240 C 58.504 103.279,58.750 103.322,58.750 103.335 C 58.750 103.348,58.862 103.384,59.000 103.414 C 59.137 103.444,59.606 103.551,60.040 103.652 C 68.456 105.596,71.673 102.458,66.660 97.195 C 66.034 96.537,64.989 95.667,64.826 95.667 C 64.747 95.667,64.617 95.547,64.535 95.402 C 64.453 95.256,64.320 95.149,64.239 95.164 C 64.158 95.179,64.069 95.124,64.041 95.041 C 63.989 94.885,65.061 93.667,65.251 93.667 C 65.384 93.667,65.833 93.224,65.833 93.093 C 65.833 93.039,66.169 92.649,66.580 92.227 C 66.991 91.804,67.287 91.392,67.237 91.312 C 67.188 91.232,67.224 91.167,67.319 91.167 C 68.127 91.167,68.712 87.628,68.000 87.048 C 67.862 86.936,67.814 86.842,67.892 86.839 C 68.087 86.831,67.068 85.950,66.799 85.892 C 66.680 85.867,66.298 85.776,65.950 85.689 C 65.179 85.497,63.933 85.567,61.917 85.916 C 61.358 86.013,59.996 86.370,58.682 86.765 C 58.411 86.847,58.317 86.827,58.393 86.704 C 58.455 86.605,58.429 86.476,58.336 86.418 C 58.243 86.361,58.167 86.060,58.167 85.750 C 58.167 85.440,58.097 85.143,58.011 85.090 C 57.926 85.037,57.862 84.773,57.870 84.503 C 57.877 84.233,57.787 83.895,57.668 83.752 C 57.550 83.609,57.500 83.444,57.558 83.386 C 57.616 83.328,57.580 83.180,57.478 83.057 C 57.376 82.934,57.342 82.833,57.402 82.833 C 57.462 82.833,57.419 82.665,57.306 82.458 C 57.192 82.252,57.084 81.992,57.065 81.881 C 57.047 81.770,56.874 81.458,56.682 81.189 C 56.490 80.919,56.333 80.616,56.333 80.514 C 56.333 80.413,56.108 80.095,55.833 79.807 C 55.558 79.519,55.333 79.351,55.333 79.432 C 55.333 79.513,55.155 79.388,54.937 79.153 C 54.332 78.500,52.922 78.479,52.147 79.111 M54.114 81.362 C 54.326 81.562,54.500 81.824,54.500 81.946 C 54.500 82.067,54.575 82.167,54.667 82.167 C 54.758 82.167,54.817 82.223,54.798 82.292 C 54.778 82.360,54.856 82.585,54.970 82.792 C 55.085 82.998,55.134 83.167,55.079 83.167 C 55.025 83.167,55.040 83.260,55.113 83.375 C 55.185 83.490,55.255 83.640,55.268 83.708 C 55.281 83.777,55.307 83.852,55.325 83.875 C 55.366 83.925,55.419 84.122,55.745 85.417 C 56.354 87.837,56.352 87.660,55.772 88.014 C 55.485 88.189,55.123 88.332,54.968 88.333 C 54.813 88.333,54.643 88.404,54.590 88.489 C 54.248 89.042,52.333 89.318,52.333 88.815 C 52.333 88.733,52.277 88.679,52.208 88.693 C 52.140 88.708,51.971 88.676,51.833 88.624 C 51.696 88.571,51.379 88.483,51.130 88.429 C 50.637 88.321,50.629 88.190,51.012 86.583 C 51.099 86.217,51.193 85.750,51.220 85.546 C 51.247 85.342,51.316 85.128,51.373 85.071 C 51.430 85.014,51.437 84.862,51.387 84.734 C 51.338 84.605,51.368 84.500,51.454 84.500 C 51.541 84.500,51.619 84.406,51.629 84.292 C 51.651 84.044,51.797 83.417,51.833 83.417 C 51.847 83.417,51.884 83.287,51.914 83.128 C 51.945 82.970,52.089 82.721,52.235 82.575 C 52.381 82.429,52.500 82.199,52.500 82.064 C 52.500 81.282,53.545 80.828,54.114 81.362 M290.376 82.850 C 290.215 82.907,289.990 82.919,289.875 82.876 C 289.760 82.833,289.667 82.893,289.667 83.010 C 289.667 83.127,289.623 83.178,289.569 83.125 C 289.434 82.989,288.500 83.332,288.500 83.516 C 288.500 83.599,288.388 83.667,288.251 83.667 C 287.838 83.667,286.411 84.995,286.237 85.542 C 286.186 85.702,286.082 85.833,286.007 85.833 C 285.931 85.833,285.812 86.040,285.742 86.292 C 285.672 86.544,285.593 86.825,285.566 86.917 C 285.069 88.624,285.151 90.815,285.758 92.055 C 286.341 93.247,287.958 94.943,288.642 95.081 C 288.793 95.112,289.254 95.248,289.667 95.383 C 290.079 95.519,290.529 95.632,290.667 95.634 C 292.909 95.672,292.759 95.681,294.143 95.426 C 295.314 95.209,296.491 94.352,297.791 92.768 C 300.194 89.841,297.712 83.544,293.917 82.940 C 293.642 82.897,293.417 82.847,293.417 82.830 C 293.417 82.743,290.625 82.761,290.376 82.850 M112.823 100.875 C 112.813 115.962,112.780 118.183,112.563 118.531 C 112.488 118.651,112.404 118.895,112.376 119.072 C 112.264 119.793,110.878 121.318,110.023 121.663 C 109.295 121.957,107.065 122.001,106.389 121.736 C 106.098 121.622,105.828 121.561,105.787 121.602 C 105.747 121.642,105.619 121.560,105.503 121.421 C 105.387 121.281,105.224 121.167,105.141 121.167 C 104.917 121.167,103.333 119.584,103.333 119.360 C 103.333 119.254,103.272 119.167,103.196 119.167 C 102.981 119.167,102.028 116.813,101.763 115.625 C 101.681 115.260,101.602 115.196,101.372 115.310 C 100.905 115.541,99.395 116.000,99.103 116.000 C 98.955 116.000,98.833 116.075,98.833 116.167 C 98.833 116.258,98.613 116.333,98.343 116.333 C 98.074 116.333,97.807 116.408,97.750 116.500 C 97.693 116.592,97.483 116.667,97.282 116.668 C 97.081 116.668,96.711 116.776,96.459 116.908 C 96.207 117.039,95.794 117.183,95.542 117.227 C 94.965 117.329,93.358 117.800,92.917 117.997 C 92.733 118.078,92.040 118.311,91.375 118.513 C 90.368 118.819,90.167 118.939,90.167 119.235 C 90.167 119.577,90.733 121.820,90.949 122.333 C 91.007 122.471,91.062 122.621,91.071 122.667 C 91.113 122.883,91.576 123.926,91.662 124.000 C 91.715 124.046,91.900 124.404,92.073 124.795 C 92.246 125.186,92.581 125.725,92.818 125.992 C 93.056 126.258,93.400 126.684,93.583 126.938 C 94.081 127.628,95.553 128.998,95.797 128.999 C 95.914 129.000,96.053 129.112,96.106 129.249 C 96.159 129.386,96.269 129.457,96.351 129.406 C 96.433 129.355,96.501 129.374,96.501 129.448 C 96.502 129.523,96.671 129.669,96.876 129.774 C 98.869 130.789,100.037 131.333,100.224 131.333 C 100.347 131.333,100.862 131.476,101.369 131.650 C 104.074 132.581,110.546 132.830,113.333 132.111 C 113.563 132.052,113.938 131.973,114.167 131.935 C 115.336 131.744,116.741 131.271,118.007 130.641 C 118.782 130.255,119.473 129.953,119.542 129.970 C 119.610 129.986,119.667 129.926,119.667 129.836 C 119.667 129.745,119.922 129.565,120.233 129.434 C 120.708 129.236,123.167 126.995,123.167 126.761 C 123.167 126.721,123.388 126.445,123.659 126.148 C 123.930 125.852,124.120 125.559,124.081 125.497 C 124.043 125.435,124.160 125.224,124.343 125.028 C 124.525 124.833,124.658 124.653,124.639 124.628 C 124.620 124.604,124.727 124.396,124.876 124.167 C 125.025 123.938,125.185 123.537,125.232 123.277 C 125.278 123.017,125.398 122.706,125.497 122.586 C 125.597 122.467,125.667 122.304,125.653 122.226 C 125.639 122.147,125.642 122.046,125.660 122.000 C 125.678 121.954,125.717 121.804,125.747 121.667 C 125.777 121.529,125.894 121.079,126.005 120.667 C 126.157 120.108,126.224 115.676,126.271 103.292 L 126.334 86.667 119.584 86.667 L 112.833 86.667 112.823 100.875 M304.833 108.917 L 304.833 131.168 320.958 131.126 L 337.083 131.083 337.127 125.792 L 337.171 120.500 327.502 120.500 L 317.833 120.500 317.833 116.750 L 317.833 113.000 325.917 113.000 L 334.000 113.000 334.000 108.417 L 334.000 103.833 325.917 103.833 L 317.833 103.833 317.833 100.583 L 317.833 97.333 327.167 97.333 L 336.500 97.333 336.500 92.000 L 336.500 86.667 320.667 86.667 L 304.833 86.667 304.833 108.917 M343.000 108.923 L 343.000 131.194 354.292 131.110 C 360.502 131.064,365.808 130.994,366.083 130.954 C 366.358 130.914,366.846 130.835,367.167 130.779 C 367.488 130.723,368.050 130.642,368.417 130.599 C 368.783 130.557,369.533 130.410,370.082 130.273 C 370.631 130.137,371.112 130.056,371.150 130.094 C 371.188 130.133,371.320 130.080,371.443 129.978 C 371.566 129.876,371.667 129.835,371.667 129.887 C 371.667 129.939,372.098 129.831,372.625 129.646 C 373.152 129.461,373.730 129.279,373.909 129.241 C 374.088 129.204,374.613 128.992,375.075 128.771 C 375.538 128.550,376.198 128.240,376.542 128.082 C 376.885 127.924,377.167 127.729,377.167 127.648 C 377.167 127.566,377.268 127.500,377.391 127.500 C 377.515 127.500,377.789 127.350,378.000 127.167 C 378.211 126.983,378.448 126.833,378.526 126.833 C 378.603 126.833,378.803 126.702,378.970 126.542 C 379.552 125.983,380.333 125.332,380.418 125.334 C 380.465 125.335,380.759 125.073,381.071 124.751 C 381.383 124.430,381.612 124.167,381.579 124.167 C 381.546 124.167,381.852 123.829,382.260 123.416 C 382.667 123.003,383.000 122.550,383.000 122.410 C 383.000 122.271,383.112 122.113,383.249 122.061 C 383.386 122.008,383.462 121.906,383.418 121.835 C 383.373 121.763,383.453 121.608,383.595 121.490 C 383.817 121.306,384.316 120.331,384.320 120.074 C 384.321 120.027,384.434 119.876,384.571 119.739 C 384.708 119.602,384.869 119.229,384.929 118.911 C 384.988 118.593,385.116 118.333,385.213 118.333 C 385.310 118.333,385.340 118.284,385.279 118.224 C 385.219 118.163,385.236 118.032,385.317 117.932 C 385.487 117.722,385.890 116.229,386.356 114.083 C 386.847 111.819,386.865 107.353,386.397 104.000 C 386.260 103.020,386.238 102.917,386.132 102.746 C 386.076 102.655,385.980 102.281,385.919 101.915 C 385.804 101.225,385.581 100.495,385.307 99.910 C 385.219 99.722,385.125 99.460,385.098 99.326 C 385.017 98.924,384.504 97.833,384.082 97.165 C 383.864 96.819,383.731 96.491,383.787 96.435 C 383.843 96.379,383.801 96.333,383.694 96.333 C 383.587 96.333,383.500 96.255,383.500 96.160 C 383.500 95.888,382.177 94.162,381.333 93.333 C 380.107 92.130,378.991 91.167,378.823 91.167 C 378.737 91.167,378.667 91.092,378.667 91.000 C 378.667 90.908,378.554 90.833,378.417 90.833 C 378.279 90.833,378.167 90.767,378.167 90.687 C 378.167 90.606,377.942 90.447,377.667 90.333 C 377.392 90.219,377.167 90.060,377.167 89.980 C 377.167 89.899,377.047 89.833,376.901 89.833 C 376.754 89.833,376.414 89.676,376.145 89.484 C 375.875 89.292,375.564 89.116,375.452 89.093 C 375.150 89.029,374.674 88.847,373.779 88.452 C 373.336 88.257,372.830 88.109,372.654 88.122 C 372.478 88.135,372.333 88.092,372.333 88.025 C 372.333 87.959,372.202 87.889,372.042 87.871 C 371.694 87.832,371.100 87.706,371.042 87.659 C 371.019 87.640,370.925 87.606,370.833 87.583 C 370.742 87.560,370.648 87.527,370.625 87.508 C 370.572 87.465,370.080 87.363,369.333 87.238 C 369.012 87.185,368.563 87.109,368.333 87.068 C 366.642 86.772,364.249 86.706,354.292 86.681 L 343.000 86.652 343.000 108.923 M23.998 88.375 C 23.898 88.765,23.771 89.196,23.714 89.333 C 23.542 89.755,23.344 90.436,23.253 90.926 C 23.219 91.104,23.177 91.250,23.158 91.250 C 23.121 91.250,23.004 91.935,22.974 92.333 C 22.963 92.471,22.881 92.677,22.790 92.792 C 22.700 92.906,22.662 93.000,22.707 93.000 C 22.752 93.000,22.733 93.302,22.666 93.670 C 22.514 94.501,22.576 94.539,24.326 94.698 C 24.680 94.730,24.808 94.599,24.883 94.125 C 24.959 93.651,25.076 93.032,25.256 92.167 C 25.284 92.029,25.323 91.898,25.341 91.875 C 25.360 91.852,25.390 91.777,25.407 91.708 C 25.425 91.640,25.536 91.246,25.654 90.834 C 25.772 90.422,25.898 89.953,25.934 89.792 C 26.017 89.424,26.123 89.021,26.263 88.542 C 26.354 88.228,26.308 88.166,25.978 88.166 C 25.761 88.165,25.369 88.053,25.106 87.916 C 24.372 87.533,24.195 87.607,23.998 88.375 M82.167 87.859 C 81.938 87.953,81.563 88.064,81.333 88.108 C 80.747 88.219,80.574 88.437,80.827 88.743 C 80.945 88.884,81.000 89.000,80.950 89.000 C 80.900 89.000,81.003 89.412,81.180 89.915 C 81.357 90.418,81.533 90.999,81.572 91.206 C 81.610 91.414,81.653 91.583,81.667 91.583 C 81.727 91.583,82.163 93.702,82.233 94.331 C 82.275 94.708,82.340 94.740,82.931 94.683 C 83.290 94.648,83.794 94.617,84.052 94.613 L 84.520 94.606 84.410 93.603 C 84.349 93.051,84.230 92.417,84.145 92.194 C 84.060 91.970,83.952 91.517,83.905 91.186 C 83.858 90.854,83.753 90.433,83.672 90.250 C 83.591 90.067,83.381 89.433,83.206 88.842 C 82.859 87.673,82.788 87.606,82.167 87.859 M66.068 88.013 C 66.203 88.148,65.833 89.380,65.567 89.680 C 65.438 89.825,65.333 90.028,65.333 90.132 C 65.333 90.236,65.183 90.402,65.000 90.500 C 64.817 90.598,64.667 90.763,64.667 90.866 C 64.667 90.969,64.057 91.643,63.312 92.363 L 61.958 93.673 60.687 92.925 C 59.989 92.514,59.313 92.117,59.187 92.042 C 59.045 91.958,58.934 91.525,58.897 90.911 C 58.864 90.364,58.818 89.783,58.794 89.619 C 58.725 89.150,60.863 88.291,62.547 88.112 C 62.894 88.075,63.214 88.008,63.259 87.964 C 63.368 87.854,65.955 87.900,66.068 88.013 M56.667 90.501 C 56.667 90.792,56.624 90.809,56.340 90.632 C 56.104 90.485,56.069 90.392,56.215 90.300 C 56.543 90.091,56.667 90.146,56.667 90.501 M54.588 92.244 C 54.998 92.473,55.333 92.623,55.333 92.578 C 55.333 92.533,55.625 92.680,55.982 92.905 C 56.338 93.130,56.676 93.269,56.732 93.213 C 56.788 93.157,56.833 94.058,56.833 95.215 L 56.833 97.319 56.042 97.777 C 55.606 98.028,55.195 98.313,55.128 98.409 C 55.051 98.518,55.002 98.521,54.997 98.417 C 54.993 98.325,54.898 98.363,54.786 98.502 C 54.247 99.172,52.019 98.936,51.498 98.154 C 51.452 98.084,51.217 97.977,50.978 97.917 C 50.356 97.761,50.213 97.301,50.208 95.454 C 50.203 93.492,50.421 93.165,52.275 92.346 C 52.473 92.259,52.673 92.124,52.721 92.047 C 52.910 91.741,53.867 91.842,54.588 92.244 M59.812 95.057 C 59.956 95.231,59.904 95.323,59.582 95.470 C 59.354 95.574,59.167 95.592,59.167 95.510 C 59.167 95.428,59.121 95.242,59.066 95.097 C 58.937 94.763,59.541 94.731,59.812 95.057 M48.000 95.583 C 48.000 95.991,47.925 96.167,47.750 96.167 C 47.612 96.167,47.500 96.092,47.500 96.000 C 47.500 95.908,47.387 95.833,47.250 95.833 C 46.796 95.833,47.294 95.258,47.958 95.015 C 47.981 95.007,48.000 95.263,48.000 95.583 M64.167 98.076 C 64.824 98.522,66.000 99.747,66.000 99.986 C 66.000 100.072,66.107 100.250,66.238 100.381 C 66.470 100.613,66.823 102.021,66.597 101.811 C 66.534 101.752,66.168 101.793,65.783 101.900 C 65.035 102.110,63.834 102.118,62.750 101.921 C 62.383 101.854,61.933 101.777,61.750 101.748 C 61.567 101.720,61.229 101.656,61.000 101.607 C 60.771 101.558,60.396 101.477,60.167 101.427 C 58.902 101.155,58.841 101.075,58.930 99.775 C 58.975 99.119,59.093 98.555,59.193 98.521 C 59.293 98.486,59.508 98.325,59.671 98.162 C 59.834 97.999,60.118 97.818,60.301 97.760 C 60.485 97.702,60.678 97.544,60.729 97.410 C 60.781 97.276,60.938 97.167,61.078 97.167 C 61.218 97.167,61.333 97.103,61.333 97.025 C 61.333 96.518,62.111 96.562,62.833 97.110 C 63.246 97.424,63.846 97.858,64.167 98.076 M364.337 97.394 C 364.839 97.441,365.287 97.495,365.333 97.515 C 365.379 97.535,365.492 97.568,365.583 97.589 C 365.675 97.611,365.787 97.643,365.833 97.660 C 365.983 97.717,366.406 97.825,366.917 97.935 C 367.192 97.995,367.529 98.131,367.667 98.238 C 367.804 98.346,368.198 98.578,368.542 98.754 C 368.885 98.931,369.167 99.134,369.167 99.205 C 369.167 99.275,369.248 99.333,369.348 99.333 C 369.554 99.333,371.333 101.168,371.333 101.381 C 371.333 101.457,371.420 101.466,371.526 101.401 C 371.638 101.331,371.673 101.355,371.610 101.457 C 371.550 101.554,371.723 102.109,371.994 102.691 C 373.197 105.275,373.644 110.027,372.917 112.500 C 372.769 113.004,372.628 113.529,372.605 113.667 C 372.498 114.277,372.126 115.167,371.977 115.167 C 371.887 115.167,371.856 115.236,371.908 115.320 C 371.960 115.404,371.887 115.589,371.746 115.731 C 371.604 115.872,371.500 116.037,371.513 116.096 C 371.527 116.155,371.305 116.451,371.019 116.754 C 370.734 117.057,370.499 117.367,370.499 117.444 C 370.498 117.521,370.236 117.762,369.916 117.980 C 369.595 118.198,369.333 118.442,369.333 118.523 C 369.333 118.773,366.837 119.899,365.865 120.087 C 365.710 120.117,365.583 120.153,365.583 120.168 C 365.583 120.287,364.125 120.364,360.375 120.443 L 356.000 120.536 356.000 108.893 L 356.000 97.250 359.712 97.280 C 361.753 97.297,363.834 97.348,364.337 97.394 M45.959 97.718 C 47.736 98.583,48.165 98.951,48.181 99.627 C 48.189 99.970,48.227 100.569,48.266 100.958 C 48.321 101.510,48.281 101.667,48.085 101.667 C 47.947 101.667,47.833 101.746,47.833 101.843 C 47.833 101.940,47.764 101.977,47.678 101.924 C 47.593 101.871,47.475 101.905,47.417 102.000 C 47.358 102.095,47.237 102.127,47.148 102.072 C 47.059 102.016,46.892 102.049,46.778 102.144 C 46.663 102.239,46.317 102.361,46.007 102.415 C 45.698 102.470,45.393 102.547,45.329 102.586 C 44.974 102.805,41.968 103.070,41.414 102.931 C 41.002 102.827,40.975 102.770,41.078 102.218 C 41.243 101.338,42.697 99.322,43.879 98.333 C 44.153 98.104,44.529 97.785,44.714 97.625 C 45.128 97.267,45.015 97.259,45.959 97.718 M145.957 97.932 C 145.933 97.956,145.614 98.013,145.248 98.059 C 143.940 98.223,142.249 98.558,142.167 98.670 C 142.121 98.732,141.858 98.834,141.583 98.895 C 140.897 99.047,139.814 99.458,139.167 99.812 C 138.516 100.167,138.082 100.438,137.799 100.667 C 137.629 100.804,137.434 100.917,137.365 100.917 C 136.946 100.917,134.232 103.809,133.786 104.731 C 132.827 106.713,132.778 106.864,132.464 108.800 C 132.260 110.059,132.180 109.960,133.504 110.076 C 135.080 110.214,136.193 110.336,136.667 110.421 C 136.896 110.463,137.571 110.538,138.167 110.589 C 138.762 110.639,139.625 110.721,140.083 110.770 C 140.542 110.819,141.254 110.887,141.667 110.922 C 142.431 110.986,143.129 111.088,143.780 111.230 C 144.040 111.287,144.146 111.230,144.150 111.030 C 144.181 109.447,145.537 107.418,147.164 106.519 C 147.750 106.195,150.170 106.130,150.734 106.422 C 150.976 106.548,151.196 106.636,151.222 106.617 C 151.248 106.599,151.515 106.790,151.814 107.042 C 152.114 107.294,152.304 107.500,152.237 107.500 C 152.170 107.500,152.233 107.631,152.378 107.792 C 152.712 108.161,153.039 109.454,152.936 110.000 C 152.893 110.229,152.853 110.469,152.846 110.533 C 152.777 111.179,151.408 111.850,150.000 111.928 C 149.404 111.961,148.579 112.039,148.167 112.102 C 147.754 112.164,147.192 112.238,146.917 112.265 C 145.884 112.369,143.981 112.613,143.333 112.725 C 142.217 112.918,141.543 113.029,141.121 113.087 C 140.867 113.123,140.581 113.200,140.486 113.259 C 140.391 113.318,140.074 113.402,139.781 113.446 C 139.270 113.523,138.827 113.703,136.833 114.643 C 134.834 115.585,132.618 117.541,132.226 118.708 C 132.172 118.869,132.072 119.000,132.004 119.000 C 131.434 119.000,130.775 124.403,131.252 125.168 C 131.337 125.305,131.429 125.556,131.455 125.727 C 131.482 125.897,131.637 126.235,131.799 126.477 C 131.962 126.719,132.204 127.142,132.336 127.417 C 132.760 128.295,134.969 130.309,135.227 130.051 C 135.286 129.992,135.333 130.026,135.333 130.127 C 135.333 130.367,137.034 131.167,137.545 131.167 C 137.765 131.167,137.998 131.220,138.064 131.286 C 138.129 131.351,138.348 131.426,138.550 131.452 C 141.303 131.809,141.785 131.833,143.206 131.683 C 145.583 131.433,145.915 131.358,147.167 130.793 C 147.579 130.607,148.104 130.371,148.333 130.269 C 148.563 130.167,148.787 130.045,148.833 129.996 C 148.879 129.948,149.140 129.767,149.412 129.593 C 150.668 128.792,151.995 127.413,152.867 126.000 L 153.228 125.417 153.372 126.167 C 153.452 126.579,153.556 127.029,153.603 127.167 C 153.650 127.304,153.692 127.454,153.697 127.500 C 153.738 127.892,155.825 130.210,155.839 129.879 C 155.842 129.808,155.954 129.896,156.089 130.074 C 156.223 130.251,156.334 130.326,156.336 130.240 C 156.337 130.154,156.410 130.196,156.496 130.333 C 156.583 130.471,156.713 130.587,156.786 130.591 C 156.858 130.595,157.217 130.751,157.583 130.938 C 159.041 131.680,161.712 131.946,164.250 131.603 C 164.800 131.529,165.380 131.470,165.538 131.473 C 165.697 131.476,165.871 131.407,165.925 131.320 C 165.979 131.233,166.093 131.204,166.178 131.257 C 166.264 131.310,166.427 131.294,166.542 131.223 C 166.656 131.151,166.887 131.072,167.054 131.046 C 167.464 130.982,169.569 129.967,169.639 129.800 C 169.669 129.727,169.782 129.664,169.889 129.661 C 170.845 129.634,170.955 128.427,170.149 126.812 C 169.983 126.480,169.887 126.168,169.936 126.119 C 169.985 126.071,169.910 125.809,169.769 125.537 C 169.628 125.265,169.560 124.995,169.618 124.938 C 169.675 124.880,169.635 124.833,169.528 124.833 C 169.421 124.833,169.333 124.646,169.333 124.417 C 169.333 124.188,169.250 124.000,169.149 124.000 C 169.047 124.000,169.005 123.893,169.056 123.762 C 169.176 123.450,168.782 123.133,168.438 123.265 C 168.289 123.322,168.167 123.427,168.167 123.498 C 168.167 123.953,165.972 124.282,165.576 123.886 C 164.764 123.073,164.777 123.187,164.726 116.442 C 164.699 112.945,164.640 109.783,164.595 109.417 C 164.368 107.589,164.302 107.298,163.906 106.408 C 163.745 106.046,163.603 105.712,163.590 105.667 C 163.441 105.133,163.281 104.833,163.146 104.833 C 163.055 104.833,163.021 104.767,163.071 104.687 C 163.167 104.531,162.084 103.007,161.718 102.783 C 161.598 102.710,161.500 102.541,161.500 102.408 C 161.500 102.275,161.429 102.167,161.341 102.167 C 161.254 102.167,160.928 101.904,160.616 101.583 C 160.305 101.263,159.978 101.000,159.890 101.000 C 159.802 101.000,159.584 100.866,159.406 100.703 C 158.971 100.303,157.833 99.612,157.833 99.748 C 157.833 99.808,157.715 99.739,157.571 99.595 C 157.427 99.451,157.177 99.333,157.016 99.333 C 156.854 99.333,156.670 99.281,156.606 99.217 C 156.543 99.154,156.399 99.083,156.287 99.059 C 156.175 99.036,155.860 98.971,155.587 98.915 C 155.314 98.859,155.037 98.726,154.971 98.620 C 154.905 98.513,154.800 98.478,154.737 98.541 C 154.674 98.603,154.480 98.579,154.306 98.486 C 154.132 98.392,153.786 98.289,153.537 98.255 C 153.287 98.221,152.572 98.111,151.947 98.009 C 151.001 97.854,146.097 97.792,145.957 97.932 M222.000 98.008 C 221.679 98.084,221.022 98.190,220.539 98.243 C 220.057 98.295,219.044 98.568,218.289 98.849 C 217.534 99.129,216.804 99.385,216.667 99.417 C 216.529 99.448,216.417 99.486,216.417 99.500 C 216.417 99.514,216.287 99.550,216.128 99.581 C 215.970 99.611,215.737 99.739,215.611 99.865 C 215.485 99.991,215.071 100.234,214.691 100.406 C 214.311 100.577,214.000 100.781,214.000 100.859 C 214.000 100.936,213.901 101.000,213.780 101.000 C 213.659 101.000,213.407 101.169,213.220 101.375 C 213.033 101.581,212.663 101.950,212.398 102.195 C 211.522 103.005,210.915 103.666,211.048 103.666 C 211.120 103.667,211.034 103.823,210.855 104.015 C 209.525 105.443,208.367 109.979,209.324 110.017 C 209.899 110.040,210.892 110.127,212.000 110.252 C 212.504 110.309,213.292 110.384,213.750 110.418 C 214.208 110.452,214.921 110.535,215.333 110.603 C 215.746 110.671,216.308 110.735,216.583 110.747 C 216.858 110.759,217.421 110.819,217.833 110.881 C 218.246 110.943,218.939 111.034,219.373 111.084 C 219.807 111.134,220.266 111.215,220.394 111.264 C 220.616 111.349,220.745 111.060,220.934 110.053 C 221.076 109.301,222.224 107.333,222.521 107.333 C 222.609 107.333,222.842 107.183,223.038 107.000 C 223.235 106.817,223.495 106.667,223.615 106.667 C 223.735 106.667,223.833 106.608,223.833 106.535 C 223.833 106.371,224.643 106.264,225.833 106.273 C 226.986 106.281,227.500 106.365,227.500 106.545 C 227.500 106.623,227.566 106.646,227.646 106.596 C 227.778 106.514,228.664 107.291,229.084 107.857 C 229.400 108.282,229.599 109.411,229.470 110.035 C 229.176 111.451,228.489 111.778,225.167 112.086 C 224.754 112.124,224.079 112.196,223.667 112.245 C 223.254 112.295,222.436 112.375,221.849 112.424 C 221.262 112.472,220.735 112.541,220.678 112.576 C 220.621 112.612,219.941 112.727,219.167 112.833 C 218.393 112.939,217.682 113.075,217.588 113.134 C 217.494 113.193,217.244 113.265,217.032 113.294 C 215.842 113.458,212.518 114.915,211.786 115.594 C 211.541 115.821,211.300 116.004,211.252 116.001 C 211.029 115.985,210.346 116.553,210.428 116.685 C 210.478 116.767,210.403 116.833,210.260 116.833 C 210.117 116.833,210.000 116.890,210.000 116.958 C 210.000 117.027,209.803 117.308,209.563 117.583 C 208.694 118.580,208.308 119.320,207.988 120.606 C 207.653 121.956,207.567 124.752,207.855 124.930 C 207.935 124.979,208.003 125.146,208.006 125.302 C 208.009 125.457,208.156 125.883,208.333 126.250 C 208.510 126.617,208.658 126.992,208.661 127.085 C 208.664 127.178,208.850 127.451,209.073 127.692 C 209.297 127.933,209.443 128.168,209.398 128.213 C 209.353 128.258,209.583 128.460,209.909 128.662 C 210.236 128.864,210.453 129.108,210.392 129.207 C 210.329 129.308,210.360 129.337,210.463 129.273 C 210.562 129.211,210.746 129.306,210.870 129.484 C 212.827 132.278,223.105 132.395,225.845 129.655 C 226.022 129.478,226.252 129.333,226.355 129.333 C 226.459 129.333,226.792 129.071,227.094 128.750 C 227.397 128.429,227.724 128.167,227.822 128.167 C 227.920 128.167,228.000 128.110,228.000 128.042 C 228.000 127.973,228.198 127.692,228.440 127.417 C 228.681 127.142,229.087 126.593,229.342 126.198 C 229.849 125.411,229.812 125.377,230.163 126.935 C 230.289 127.494,230.546 127.989,230.908 128.373 C 231.212 128.695,231.526 129.074,231.605 129.215 C 231.742 129.456,233.389 130.667,233.581 130.667 C 233.630 130.667,233.988 130.805,234.377 130.974 C 235.765 131.578,236.440 131.721,238.083 131.758 C 240.308 131.807,242.325 131.523,243.829 130.949 C 244.335 130.755,244.787 130.587,244.833 130.576 C 245.057 130.521,245.833 130.124,246.583 129.681 C 247.572 129.098,247.571 129.117,246.727 126.769 C 246.397 125.853,246.112 125.024,246.093 124.927 C 246.074 124.830,245.933 124.460,245.779 124.105 C 245.626 123.750,245.500 123.356,245.500 123.230 C 245.500 122.941,245.226 122.931,245.050 123.213 C 244.845 123.540,243.561 124.052,242.987 124.036 C 241.436 123.992,241.342 123.528,241.325 115.813 C 241.318 112.375,241.238 109.247,241.147 108.833 C 241.056 108.421,240.981 107.954,240.980 107.795 C 240.979 107.636,240.909 107.463,240.823 107.410 C 240.737 107.357,240.667 107.135,240.667 106.917 C 240.667 106.698,240.592 106.473,240.500 106.417 C 240.408 106.360,240.333 106.185,240.333 106.029 C 240.333 105.872,240.143 105.464,239.911 105.122 C 239.678 104.780,239.534 104.500,239.589 104.500 C 239.645 104.500,239.573 104.382,239.429 104.238 C 239.285 104.094,239.167 103.882,239.167 103.767 C 239.167 103.567,237.706 102.043,236.542 101.027 C 235.534 100.147,232.243 98.679,230.667 98.405 C 230.438 98.366,229.987 98.284,229.667 98.223 C 228.500 98.003,228.203 97.983,225.417 97.927 C 223.858 97.895,222.321 97.932,222.000 98.008 M270.126 98.263 C 270.059 98.330,269.835 98.401,269.627 98.421 C 268.951 98.487,268.162 98.706,268.070 98.855 C 268.021 98.935,267.844 99.000,267.677 99.000 C 267.511 99.000,267.281 99.112,267.167 99.250 C 267.053 99.388,266.818 99.500,266.646 99.500 C 266.474 99.500,266.333 99.575,266.333 99.667 C 266.333 99.758,266.258 99.833,266.167 99.833 C 266.075 99.833,265.858 99.975,265.685 100.148 C 265.512 100.321,265.267 100.527,265.140 100.606 C 264.755 100.847,263.333 102.563,263.333 102.789 C 263.333 102.905,263.272 103.000,263.198 103.000 C 263.123 103.000,262.928 103.280,262.765 103.622 L 262.468 104.244 262.074 103.330 C 261.857 102.828,261.677 102.285,261.673 102.125 C 261.670 101.965,261.587 101.833,261.490 101.833 C 261.393 101.833,261.362 101.755,261.421 101.659 C 261.480 101.564,261.454 101.395,261.362 101.284 C 261.270 101.174,261.194 101.046,261.193 101.000 C 261.190 100.914,260.903 100.106,260.719 99.667 C 260.661 99.529,260.626 99.360,260.640 99.292 C 260.655 99.223,258.492 99.167,255.833 99.167 L 251.000 99.167 251.000 115.167 L 251.000 131.167 257.000 131.167 L 263.000 131.167 263.010 121.792 C 263.021 110.451,263.068 109.892,264.105 108.774 C 264.322 108.540,264.501 108.288,264.501 108.216 C 264.503 108.043,265.691 107.238,265.866 107.292 C 265.940 107.315,266.000 107.271,266.000 107.194 C 266.000 107.118,266.094 107.046,266.208 107.034 C 267.461 106.903,267.796 106.898,268.262 107.003 C 268.559 107.070,268.903 107.210,269.026 107.314 C 269.149 107.418,269.446 107.650,269.685 107.829 C 270.319 108.303,271.623 111.257,271.492 111.923 C 271.379 112.499,271.504 112.631,272.042 112.501 C 273.273 112.205,274.265 111.949,274.500 111.867 C 274.637 111.820,274.805 111.792,274.872 111.806 C 274.939 111.820,275.314 111.723,275.705 111.591 C 276.097 111.459,276.717 111.279,277.083 111.190 C 277.450 111.101,278.272 110.878,278.911 110.693 C 279.550 110.509,280.126 110.391,280.191 110.432 C 280.257 110.472,280.357 110.429,280.415 110.336 C 280.473 110.243,280.743 110.167,281.016 110.167 L 281.511 110.167 281.416 109.042 C 281.363 108.423,281.195 107.504,281.042 107.000 C 280.890 106.496,280.754 106.008,280.741 105.917 C 280.680 105.480,279.682 103.165,279.484 103.000 C 279.428 102.954,279.285 102.729,279.166 102.500 C 278.811 101.821,277.816 100.750,276.917 100.080 C 276.298 99.619,275.135 98.931,275.043 98.973 C 274.980 99.001,274.450 98.819,274.066 98.637 C 273.874 98.545,273.461 98.443,273.150 98.409 C 271.312 98.209,270.232 98.157,270.126 98.263 M22.254 100.042 C 22.348 101.234,22.462 102.291,22.598 103.250 C 22.650 103.617,22.717 104.104,22.747 104.333 C 22.777 104.563,22.855 104.975,22.920 105.250 C 22.985 105.525,23.043 105.844,23.047 105.958 C 23.058 106.228,23.214 106.221,23.933 105.920 C 24.257 105.785,24.574 105.681,24.636 105.690 C 25.135 105.760,25.326 105.638,25.261 105.292 C 25.223 105.085,25.180 104.917,25.165 104.917 C 25.151 104.917,25.110 104.767,25.076 104.583 C 24.604 102.092,24.555 101.676,24.518 99.875 L 24.500 99.000 23.336 99.000 L 22.171 99.000 22.254 100.042 M82.654 99.292 C 82.647 99.360,82.616 99.567,82.584 99.750 C 82.553 99.933,82.482 100.683,82.426 101.417 C 82.333 102.666,82.144 103.982,81.949 104.750 C 81.704 105.718,81.720 105.739,82.875 105.996 C 83.971 106.239,84.078 106.243,84.091 106.042 C 84.106 105.822,84.355 104.316,84.439 103.943 C 84.484 103.745,84.545 103.271,84.575 102.889 C 84.605 102.507,84.665 102.132,84.707 102.055 C 84.750 101.979,84.796 101.298,84.809 100.542 L 84.833 99.167 83.750 99.167 C 83.154 99.167,82.661 99.223,82.654 99.292 M174.333 103.417 L 174.333 107.667 181.828 107.667 L 189.322 107.667 188.739 108.250 C 188.418 108.571,188.108 108.833,188.050 108.833 C 187.992 108.833,187.826 108.947,187.681 109.086 C 186.444 110.269,185.972 110.667,185.805 110.667 C 185.699 110.667,185.657 110.713,185.713 110.769 C 185.770 110.825,185.463 111.150,185.033 111.492 C 184.602 111.833,184.063 112.311,183.833 112.553 C 183.604 112.796,183.323 112.996,183.208 112.997 C 183.094 112.999,183.000 113.069,183.000 113.152 C 183.000 113.236,182.701 113.524,182.335 113.793 C 181.970 114.062,181.720 114.331,181.780 114.391 C 181.840 114.451,181.820 114.500,181.736 114.500 C 181.652 114.500,181.365 114.688,181.099 114.917 C 180.833 115.146,180.547 115.333,180.464 115.333 C 180.381 115.333,180.360 115.408,180.417 115.500 C 180.473 115.592,180.451 115.667,180.366 115.667 C 180.115 115.667,179.001 116.612,179.116 116.728 C 179.175 116.786,179.138 116.833,179.035 116.833 C 178.933 116.833,178.666 117.002,178.443 117.208 C 178.221 117.415,177.711 117.861,177.311 118.201 C 176.911 118.541,176.351 119.029,176.066 119.285 C 175.781 119.541,175.163 120.087,174.693 120.500 L 173.837 121.250 173.835 126.208 L 173.833 131.167 188.917 131.167 L 204.000 131.167 204.000 126.750 L 204.000 122.333 195.883 122.333 C 188.118 122.333,187.782 122.321,188.145 122.042 C 188.354 121.881,188.817 121.469,189.173 121.125 C 189.529 120.781,189.896 120.500,189.988 120.500 C 190.080 120.500,190.235 120.350,190.333 120.167 C 190.431 119.983,190.586 119.833,190.677 119.833 C 190.768 119.833,191.168 119.515,191.565 119.125 C 192.552 118.159,193.339 117.500,193.508 117.500 C 193.585 117.500,193.756 117.346,193.888 117.157 C 194.020 116.968,194.349 116.649,194.619 116.449 C 195.044 116.133,196.080 115.234,197.827 113.667 C 198.083 113.438,198.608 112.987,198.994 112.667 C 199.381 112.346,199.934 111.854,200.223 111.574 C 200.513 111.295,201.121 110.770,201.575 110.408 C 202.029 110.046,202.648 109.513,202.950 109.222 L 203.500 108.694 203.500 103.931 L 203.500 99.167 188.917 99.167 L 174.333 99.167 174.333 103.417 M285.960 115.169 L 285.917 131.171 291.917 131.127 L 297.917 131.083 297.959 115.125 L 298.002 99.167 292.002 99.167 L 286.003 99.167 285.960 115.169 M50.740 100.570 C 50.391 100.825,50.233 100.797,50.410 100.511 C 50.470 100.413,50.642 100.333,50.792 100.333 C 51.019 100.333,51.011 100.372,50.740 100.570 M26.333 110.006 C 26.196 110.097,25.765 110.254,25.375 110.355 C 24.509 110.581,24.631 111.472,25.712 112.800 C 25.844 112.963,25.761 113.134,25.381 113.481 C 25.102 113.736,24.822 114.107,24.759 114.306 C 24.696 114.504,24.574 114.667,24.489 114.667 C 24.403 114.667,24.333 114.788,24.333 114.937 C 24.333 115.159,24.288 115.170,24.083 115.000 C 23.946 114.886,23.833 114.841,23.833 114.901 C 23.833 114.960,23.612 114.894,23.342 114.754 C 22.298 114.214,20.992 114.623,20.341 115.693 C 19.586 116.936,20.246 121.866,21.059 121.052 C 21.118 120.993,21.167 121.036,21.167 121.149 C 21.167 121.261,21.242 121.307,21.333 121.250 C 21.425 121.193,21.500 121.226,21.500 121.323 C 21.500 121.421,21.556 121.488,21.625 121.474 C 21.694 121.459,21.863 121.492,22.000 121.547 C 22.537 121.762,23.937 122.201,24.312 122.272 C 24.529 122.314,24.979 122.486,25.312 122.656 C 25.645 122.825,25.973 122.970,26.043 122.978 C 26.432 123.020,28.115 123.566,28.292 123.707 C 28.406 123.799,28.500 123.826,28.500 123.766 C 28.500 123.707,28.721 123.773,28.992 123.912 C 29.262 124.052,29.637 124.167,29.825 124.167 C 30.013 124.167,30.167 124.233,30.167 124.314 C 30.167 124.396,30.373 124.500,30.625 124.545 C 30.877 124.591,31.346 124.725,31.667 124.842 C 31.988 124.960,32.829 125.269,33.537 125.529 C 34.245 125.788,34.958 126.021,35.121 126.047 C 35.283 126.072,35.510 126.151,35.624 126.223 C 35.739 126.294,35.964 126.381,36.124 126.417 C 36.285 126.452,36.813 126.629,37.296 126.811 C 37.780 126.993,38.230 127.157,38.296 127.175 C 38.363 127.194,38.492 127.230,38.583 127.256 C 39.197 127.429,41.469 128.223,41.706 128.348 C 41.865 128.431,42.142 128.500,42.321 128.500 C 42.500 128.500,42.693 128.575,42.750 128.667 C 42.807 128.758,43.024 128.833,43.232 128.833 C 43.441 128.833,43.667 128.890,43.736 128.958 C 43.805 129.027,43.911 129.090,43.972 129.098 C 44.103 129.115,44.613 129.304,45.083 129.509 C 45.267 129.590,45.904 129.812,46.500 130.003 C 47.096 130.194,47.820 130.459,48.109 130.592 C 48.397 130.725,48.776 130.833,48.950 130.833 C 49.124 130.833,49.357 130.923,49.467 131.033 C 49.577 131.143,49.667 131.172,49.667 131.096 C 49.667 131.021,49.779 131.053,49.917 131.167 C 50.054 131.281,50.167 131.326,50.167 131.266 C 50.167 131.207,50.391 131.274,50.665 131.416 C 50.939 131.557,51.203 131.667,51.252 131.660 C 51.301 131.652,51.755 131.800,52.260 131.989 C 53.246 132.358,54.248 132.439,54.418 132.164 C 54.476 132.071,54.593 132.038,54.678 132.090 C 54.764 132.143,54.833 132.116,54.833 132.031 C 54.833 131.894,55.123 131.795,56.186 131.567 C 56.334 131.535,56.671 131.420,56.936 131.310 C 57.200 131.201,57.467 131.105,57.528 131.097 C 57.589 131.090,57.695 131.027,57.764 130.958 C 57.833 130.890,58.050 130.833,58.246 130.833 C 58.442 130.833,58.749 130.723,58.926 130.589 C 59.104 130.454,59.389 130.342,59.558 130.339 C 59.728 130.336,60.103 130.227,60.391 130.098 C 60.852 129.891,62.018 129.483,62.375 129.403 C 62.444 129.388,62.538 129.356,62.583 129.333 C 62.629 129.310,62.723 129.276,62.792 129.256 C 62.860 129.237,63.029 129.178,63.167 129.125 C 63.304 129.071,63.904 128.862,64.500 128.660 C 65.096 128.457,66.296 128.037,67.167 127.725 C 68.037 127.414,68.862 127.129,69.000 127.092 C 69.137 127.056,69.269 127.010,69.292 126.992 C 69.315 126.973,69.408 126.940,69.500 126.917 C 69.592 126.894,69.704 126.856,69.750 126.833 C 69.796 126.810,69.902 126.782,69.986 126.771 C 70.070 126.759,70.195 126.694,70.264 126.625 C 70.333 126.556,70.559 126.500,70.768 126.500 C 70.976 126.500,71.188 126.434,71.238 126.352 C 71.289 126.271,71.612 126.152,71.956 126.087 C 72.301 126.023,72.669 125.899,72.775 125.812 C 72.880 125.725,73.124 125.619,73.316 125.577 C 73.509 125.535,73.809 125.468,73.984 125.429 C 74.158 125.391,74.514 125.252,74.775 125.122 C 75.036 124.992,75.625 124.787,76.083 124.667 C 76.542 124.547,76.999 124.386,77.099 124.309 C 77.199 124.232,77.330 124.219,77.390 124.279 C 77.451 124.340,77.500 124.311,77.500 124.215 C 77.500 124.120,77.696 124.042,77.936 124.042 C 78.175 124.042,78.427 123.951,78.496 123.840 C 78.564 123.729,78.668 123.645,78.727 123.652 C 78.785 123.660,78.852 123.661,78.875 123.654 C 78.898 123.647,79.029 123.617,79.167 123.587 C 79.464 123.523,82.273 122.535,82.750 122.327 C 82.933 122.247,83.471 122.072,83.945 121.937 C 84.419 121.802,84.968 121.606,85.164 121.501 C 85.361 121.396,85.685 121.279,85.884 121.240 C 87.264 120.974,87.729 116.759,86.528 115.398 C 85.762 114.531,85.069 114.374,83.732 114.762 C 82.763 115.044,82.510 114.964,82.503 114.375 C 82.501 114.260,82.425 114.167,82.333 114.167 C 82.242 114.167,82.167 114.060,82.167 113.931 C 82.167 113.801,81.960 113.540,81.708 113.350 C 81.406 113.124,81.313 112.963,81.436 112.878 C 81.538 112.808,81.679 112.563,81.750 112.333 C 81.821 112.104,81.948 111.872,82.034 111.817 C 82.119 111.762,82.210 111.612,82.236 111.483 C 82.262 111.355,82.341 111.116,82.412 110.951 C 82.563 110.603,82.512 110.528,82.073 110.450 C 81.895 110.418,81.455 110.265,81.095 110.109 C 80.396 109.806,80.167 109.893,80.123 110.475 C 80.108 110.672,80.042 110.833,79.976 110.833 C 79.910 110.833,79.833 111.002,79.803 111.208 C 79.745 111.615,79.618 111.627,78.583 111.320 C 77.839 111.098,75.356 110.966,75.089 111.133 C 74.994 111.192,74.842 111.257,74.750 111.277 C 74.658 111.297,74.418 111.351,74.215 111.396 C 74.012 111.441,72.962 111.912,71.882 112.443 C 70.801 112.974,69.879 113.413,69.833 113.420 C 69.501 113.471,68.846 113.760,68.481 114.017 C 68.242 114.186,67.998 114.276,67.940 114.217 C 67.881 114.159,67.833 114.203,67.833 114.315 C 67.833 114.428,67.764 114.477,67.680 114.425 C 67.596 114.373,67.417 114.440,67.283 114.574 C 67.149 114.708,66.993 114.771,66.937 114.714 C 66.880 114.658,66.833 114.699,66.833 114.806 C 66.833 114.912,66.777 114.988,66.708 114.973 C 66.562 114.942,65.915 115.197,64.750 115.745 C 64.292 115.961,63.860 116.144,63.792 116.152 C 63.723 116.160,63.104 116.467,62.416 116.834 C 61.728 117.200,61.072 117.502,60.958 117.504 C 60.844 117.506,60.563 117.654,60.333 117.833 C 60.104 118.013,59.795 118.161,59.645 118.163 C 59.496 118.165,59.283 118.277,59.171 118.411 C 59.059 118.546,58.919 118.642,58.859 118.626 C 58.799 118.609,58.581 118.689,58.375 118.804 C 58.169 118.918,58.000 118.966,58.000 118.911 C 58.000 118.856,57.775 118.971,57.500 119.167 C 57.225 119.362,57.000 119.488,57.000 119.446 C 57.000 119.404,56.194 119.768,55.208 120.254 C 53.492 121.102,53.403 121.127,53.083 120.853 C 52.900 120.697,52.563 120.488,52.333 120.391 C 52.104 120.293,51.409 119.963,50.788 119.658 C 50.168 119.352,49.531 119.083,49.375 119.060 C 49.218 119.037,49.063 118.939,49.031 118.842 C 48.999 118.746,48.904 118.667,48.820 118.667 C 48.736 118.667,48.199 118.449,47.625 118.184 C 45.496 117.197,44.308 116.667,44.222 116.667 C 44.174 116.667,43.936 116.530,43.692 116.363 C 43.449 116.196,42.837 115.891,42.333 115.686 C 41.829 115.481,41.069 115.130,40.644 114.907 C 40.219 114.683,39.750 114.500,39.602 114.500 C 39.454 114.500,39.333 114.431,39.333 114.346 C 39.333 114.262,39.052 114.102,38.708 113.992 C 38.365 113.881,37.971 113.698,37.833 113.585 C 37.696 113.471,37.375 113.329,37.121 113.268 C 36.866 113.208,36.303 112.943,35.871 112.680 C 35.438 112.417,34.845 112.152,34.553 112.090 C 34.262 112.029,33.938 111.876,33.833 111.750 C 33.654 111.534,32.730 111.233,32.458 111.302 C 32.390 111.319,32.333 111.271,32.333 111.194 C 32.333 111.026,32.219 111.013,30.382 110.983 C 29.430 110.967,28.909 111.023,28.868 111.147 C 28.833 111.251,28.736 111.293,28.653 111.241 C 28.569 111.190,28.336 111.263,28.135 111.404 C 27.720 111.694,27.170 111.380,27.163 110.849 C 27.156 110.373,26.614 109.822,26.333 110.006 M31.769 113.418 C 32.146 113.471,32.596 113.621,32.769 113.752 C 32.942 113.882,33.215 113.992,33.375 113.995 C 33.535 113.998,33.667 114.075,33.667 114.167 C 33.667 114.258,33.763 114.333,33.881 114.333 C 34.000 114.333,34.390 114.483,34.750 114.667 C 35.110 114.850,35.491 115.000,35.598 115.000 C 35.705 115.000,35.885 115.112,35.998 115.248 C 36.112 115.385,36.271 115.455,36.352 115.405 C 36.433 115.355,36.500 115.393,36.500 115.490 C 36.500 115.587,36.636 115.667,36.801 115.667 C 36.967 115.667,37.249 115.777,37.426 115.911 C 37.604 116.046,37.881 116.158,38.042 116.161 C 38.202 116.164,38.333 116.223,38.333 116.293 C 38.333 116.423,39.248 116.876,39.420 116.832 C 39.474 116.818,39.701 116.927,39.925 117.074 C 40.150 117.221,40.333 117.293,40.333 117.233 C 40.333 117.174,40.442 117.216,40.576 117.327 C 40.925 117.617,43.153 118.667,43.418 118.667 C 43.542 118.667,43.761 118.785,43.905 118.929 C 44.049 119.073,44.167 119.146,44.167 119.093 C 44.167 119.039,44.823 119.330,45.625 119.740 C 46.427 120.149,47.196 120.507,47.333 120.534 C 47.471 120.561,47.621 120.626,47.667 120.678 C 47.753 120.776,49.353 121.570,49.500 121.587 C 49.546 121.593,49.949 121.763,50.396 121.965 C 50.843 122.168,51.240 122.333,51.278 122.333 C 51.780 122.333,52.333 123.136,52.333 123.865 C 52.333 124.635,52.116 124.893,51.764 124.542 C 51.695 124.473,51.589 124.410,51.528 124.402 C 51.467 124.394,51.291 124.332,51.138 124.264 C 50.985 124.197,50.722 124.115,50.555 124.083 C 50.387 124.051,50.231 124.010,50.208 123.992 C 50.185 123.973,50.110 123.942,50.042 123.923 C 49.973 123.904,49.767 123.826,49.583 123.751 C 48.531 123.318,47.667 123.014,47.667 123.076 C 47.667 123.143,46.443 122.730,44.542 122.022 C 44.060 121.842,43.667 121.736,43.667 121.785 C 43.667 121.834,43.571 121.794,43.453 121.697 C 43.336 121.599,43.052 121.486,42.824 121.444 C 42.595 121.403,42.110 121.242,41.746 121.086 C 41.381 120.930,41.008 120.784,40.917 120.760 C 40.825 120.737,40.539 120.631,40.281 120.526 C 40.023 120.420,39.709 120.333,39.583 120.333 C 39.458 120.333,39.144 120.246,38.886 120.139 C 38.628 120.032,38.379 119.935,38.333 119.924 C 38.287 119.912,37.837 119.759,37.333 119.584 C 36.829 119.408,36.360 119.280,36.292 119.299 C 36.223 119.318,36.167 119.258,36.167 119.167 C 36.167 119.075,36.110 119.012,36.042 119.027 C 35.973 119.042,35.706 118.967,35.447 118.860 C 35.189 118.754,34.838 118.667,34.666 118.667 C 34.494 118.667,34.310 118.597,34.258 118.513 C 34.206 118.428,33.920 118.310,33.623 118.250 C 33.012 118.127,32.328 117.902,30.042 117.076 C 29.469 116.868,28.999 116.748,28.997 116.808 C 28.996 116.868,28.940 116.834,28.872 116.733 C 28.805 116.631,28.208 116.382,27.546 116.178 L 26.342 115.808 26.713 115.291 C 27.168 114.654,27.667 114.127,27.667 114.281 C 27.667 114.344,27.892 114.180,28.167 113.917 C 28.442 113.653,28.667 113.498,28.667 113.573 C 28.667 113.647,28.776 113.617,28.909 113.506 C 29.043 113.395,29.212 113.339,29.284 113.381 C 29.357 113.424,29.565 113.404,29.746 113.339 C 30.073 113.220,30.457 113.235,31.769 113.418 M77.583 113.403 C 78.788 113.818,79.497 114.306,80.475 115.395 C 80.809 115.767,80.827 115.844,80.600 115.916 C 80.453 115.962,80.202 116.049,80.042 116.109 C 79.881 116.169,79.675 116.232,79.583 116.250 C 79.492 116.268,79.360 116.303,79.292 116.329 C 79.223 116.354,79.092 116.394,79.000 116.417 C 78.908 116.440,78.796 116.477,78.750 116.500 C 78.704 116.523,78.610 116.554,78.542 116.569 C 78.251 116.634,76.570 117.219,76.417 117.309 C 76.230 117.419,73.697 118.321,73.380 118.390 C 73.268 118.415,73.124 118.487,73.060 118.551 C 72.997 118.614,72.788 118.667,72.597 118.668 C 72.406 118.668,72.035 118.781,71.773 118.918 C 71.510 119.055,71.158 119.167,70.991 119.167 C 70.823 119.167,70.639 119.243,70.582 119.336 C 70.524 119.429,70.407 119.462,70.322 119.410 C 70.236 119.357,70.167 119.377,70.167 119.455 C 70.167 119.532,70.035 119.606,69.875 119.619 C 69.715 119.631,69.358 119.735,69.083 119.848 C 68.808 119.962,68.546 120.067,68.500 120.080 C 67.706 120.318,66.642 120.679,66.250 120.844 C 65.975 120.960,65.694 121.071,65.625 121.090 C 65.556 121.109,65.444 121.143,65.375 121.166 C 65.306 121.188,65.189 121.196,65.115 121.183 C 65.041 121.171,64.741 121.266,64.449 121.395 C 64.156 121.525,63.560 121.723,63.125 121.837 C 62.690 121.950,62.333 122.121,62.333 122.216 C 62.333 122.311,62.289 122.345,62.235 122.290 C 62.180 122.236,61.812 122.330,61.417 122.500 C 61.021 122.670,60.653 122.764,60.599 122.710 C 60.544 122.655,60.500 122.702,60.500 122.813 C 60.500 122.924,60.406 122.999,60.292 122.981 C 60.177 122.963,59.971 122.994,59.833 123.051 C 59.311 123.268,58.044 123.697,57.047 123.996 C 56.478 124.167,55.929 124.357,55.829 124.419 C 55.102 124.868,54.667 124.698,54.672 123.968 C 54.678 123.198,54.964 122.667,55.373 122.667 C 55.512 122.667,55.721 122.552,55.837 122.413 C 55.953 122.273,56.079 122.190,56.118 122.229 C 56.156 122.267,56.614 122.083,57.136 121.818 C 57.657 121.554,58.158 121.335,58.250 121.332 C 58.342 121.329,58.604 121.179,58.833 121.000 C 59.063 120.821,59.372 120.672,59.521 120.670 C 59.670 120.668,59.887 120.552,60.003 120.413 C 60.119 120.273,60.251 120.195,60.296 120.240 C 60.340 120.285,60.534 120.212,60.726 120.077 C 60.917 119.943,61.207 119.833,61.370 119.833 C 61.533 119.833,61.667 119.764,61.667 119.680 C 61.667 119.596,62.041 119.403,62.498 119.251 C 62.955 119.099,63.372 118.905,63.425 118.821 C 63.477 118.736,63.665 118.667,63.843 118.667 C 64.021 118.667,64.167 118.592,64.167 118.500 C 64.167 118.408,64.260 118.331,64.375 118.328 C 64.490 118.325,65.031 118.100,65.579 117.828 C 66.127 117.556,66.671 117.333,66.787 117.333 C 66.904 117.333,67.000 117.254,67.000 117.157 C 67.000 117.060,67.075 117.027,67.167 117.083 C 67.258 117.140,67.333 117.107,67.333 117.010 C 67.333 116.913,67.390 116.849,67.458 116.867 C 67.527 116.886,68.108 116.643,68.750 116.327 C 69.392 116.012,69.954 115.752,70.000 115.750 C 70.262 115.738,71.167 115.270,71.167 115.146 C 71.167 115.066,71.223 115.015,71.292 115.033 C 71.360 115.051,71.942 114.813,72.583 114.505 C 74.929 113.378,76.504 113.031,77.583 113.403 M24.732 117.546 C 24.788 117.490,24.833 117.532,24.833 117.639 C 24.833 117.746,24.890 117.821,24.958 117.807 C 25.027 117.792,25.233 117.841,25.417 117.915 C 25.600 117.989,26.002 118.150,26.309 118.273 C 26.617 118.397,26.936 118.456,27.018 118.406 C 27.100 118.355,27.167 118.406,27.167 118.518 C 27.167 118.630,27.214 118.675,27.271 118.618 C 27.329 118.560,27.623 118.616,27.924 118.742 C 28.226 118.868,28.516 118.928,28.570 118.875 C 28.623 118.821,28.667 118.873,28.667 118.990 C 28.667 119.108,28.775 119.161,28.911 119.108 C 29.046 119.057,29.194 119.077,29.241 119.152 C 29.288 119.228,29.547 119.334,29.818 119.389 C 30.088 119.443,30.633 119.627,31.029 119.799 C 31.985 120.213,32.840 120.517,33.250 120.588 C 33.433 120.620,33.996 120.805,34.500 121.001 C 35.004 121.196,35.492 121.377,35.583 121.403 C 35.675 121.429,35.862 121.496,36.000 121.552 C 36.578 121.790,37.779 122.187,38.155 122.266 C 38.378 122.313,38.640 122.402,38.738 122.464 C 38.836 122.527,38.973 122.589,39.042 122.602 C 39.110 122.614,39.185 122.640,39.208 122.658 C 39.231 122.676,39.429 122.724,39.648 122.765 C 39.867 122.805,40.383 122.987,40.794 123.169 C 41.206 123.351,41.603 123.500,41.677 123.500 C 41.751 123.500,42.023 123.586,42.281 123.692 C 42.539 123.798,42.894 123.912,43.070 123.945 C 43.246 123.979,43.490 124.089,43.612 124.190 C 43.734 124.291,43.833 124.318,43.833 124.250 C 43.833 124.182,43.933 124.209,44.055 124.310 C 44.177 124.411,44.420 124.521,44.596 124.555 C 44.773 124.589,45.029 124.663,45.167 124.721 C 45.304 124.778,46.337 125.126,47.461 125.493 C 48.585 125.860,49.725 126.274,49.994 126.413 C 50.262 126.552,50.617 126.687,50.783 126.713 C 50.948 126.739,51.182 126.821,51.303 126.897 C 51.423 126.972,51.562 126.994,51.610 126.946 C 51.658 126.898,52.034 127.003,52.446 127.179 C 53.254 127.526,54.005 127.594,54.258 127.343 C 54.345 127.257,54.604 127.149,54.833 127.103 C 55.063 127.057,55.635 126.869,56.105 126.684 C 56.576 126.500,57.007 126.396,57.064 126.453 C 57.120 126.509,57.167 126.468,57.167 126.361 C 57.167 126.254,57.223 126.180,57.292 126.196 C 57.446 126.233,58.721 125.874,59.312 125.627 C 59.553 125.527,59.788 125.432,59.833 125.416 C 60.056 125.340,60.626 125.122,61.000 124.969 C 61.229 124.876,61.604 124.765,61.833 124.723 C 62.063 124.681,62.315 124.582,62.395 124.503 C 62.475 124.424,62.644 124.399,62.770 124.448 C 62.897 124.496,63.000 124.453,63.000 124.351 C 63.000 124.250,63.155 124.167,63.344 124.167 C 63.534 124.167,63.839 124.086,64.022 123.988 C 64.205 123.890,64.481 123.782,64.636 123.748 C 64.790 123.714,65.310 123.538,65.792 123.357 C 66.273 123.177,66.667 123.069,66.667 123.118 C 66.667 123.167,66.779 123.114,66.917 123.000 C 67.054 122.886,67.167 122.848,67.167 122.917 C 67.167 122.985,67.267 122.957,67.390 122.855 C 67.513 122.753,67.663 122.719,67.724 122.779 C 67.784 122.840,67.833 122.820,67.833 122.736 C 67.834 122.652,68.031 122.572,68.272 122.558 C 68.513 122.544,68.774 122.431,68.853 122.308 C 68.931 122.184,68.996 122.138,68.997 122.206 C 68.999 122.273,69.394 122.172,69.875 121.980 C 70.356 121.788,70.825 121.619,70.917 121.603 C 71.008 121.588,71.308 121.491,71.583 121.387 C 71.858 121.283,72.233 121.141,72.417 121.072 C 72.600 121.004,72.815 120.962,72.894 120.980 C 72.974 120.998,73.199 120.908,73.394 120.780 C 73.708 120.575,75.373 120.022,75.710 120.011 C 75.780 120.009,76.061 119.891,76.335 119.749 C 76.609 119.607,76.833 119.534,76.833 119.585 C 76.833 119.636,77.002 119.586,77.208 119.472 C 77.415 119.359,77.658 119.252,77.750 119.234 C 77.842 119.216,78.310 119.045,78.792 118.853 C 79.273 118.662,79.667 118.537,79.667 118.577 C 79.667 118.617,79.944 118.534,80.283 118.392 C 80.621 118.251,81.015 118.105,81.158 118.069 C 81.802 117.905,83.945 117.155,84.206 117.003 C 84.747 116.686,84.833 116.818,84.833 117.968 L 84.833 119.103 84.208 119.362 C 83.865 119.505,83.096 119.787,82.500 119.988 C 81.440 120.345,80.842 120.578,80.328 120.832 C 80.083 120.952,79.145 121.188,78.878 121.196 C 78.807 121.198,78.600 121.283,78.417 121.386 C 78.233 121.488,78.033 121.574,77.972 121.577 C 77.911 121.581,77.810 121.634,77.748 121.697 C 77.685 121.759,77.529 121.770,77.400 121.721 C 77.272 121.671,77.167 121.717,77.167 121.823 C 77.167 121.928,77.073 121.999,76.958 121.981 C 76.746 121.947,76.355 122.068,75.743 122.358 C 75.556 122.447,75.293 122.541,75.160 122.568 C 75.026 122.595,74.804 122.662,74.667 122.718 C 74.529 122.774,73.779 123.024,73.000 123.274 C 72.221 123.524,71.537 123.796,71.481 123.879 C 71.425 123.961,71.313 124.018,71.231 124.005 C 71.050 123.975,69.376 124.466,68.917 124.683 C 68.733 124.769,68.433 124.870,68.250 124.905 C 68.067 124.941,67.692 125.057,67.417 125.164 C 67.142 125.270,66.897 125.350,66.873 125.342 C 66.849 125.333,66.606 125.443,66.332 125.584 C 66.058 125.726,65.833 125.798,65.833 125.744 C 65.833 125.691,65.740 125.707,65.625 125.779 C 65.510 125.852,65.379 125.914,65.333 125.917 C 65.287 125.919,64.837 126.082,64.333 126.277 C 63.829 126.472,62.779 126.831,62.000 127.074 C 60.141 127.653,56.898 128.791,56.187 129.114 C 55.878 129.254,55.397 129.405,55.119 129.449 C 54.841 129.493,54.419 129.609,54.182 129.709 C 53.576 129.961,53.489 129.961,52.833 129.696 C 52.512 129.567,52.232 129.468,52.209 129.476 C 52.043 129.540,51.167 129.262,51.167 129.146 C 51.167 129.066,50.994 129.000,50.783 129.000 C 50.572 129.000,50.310 128.910,50.200 128.800 C 50.090 128.690,50.000 128.662,50.000 128.737 C 50.000 128.812,49.887 128.781,49.750 128.667 C 49.612 128.553,49.500 128.515,49.500 128.583 C 49.500 128.652,49.387 128.614,49.250 128.500 C 49.112 128.386,49.000 128.348,49.000 128.417 C 49.000 128.485,48.904 128.461,48.786 128.364 C 48.669 128.266,48.388 128.151,48.161 128.109 C 47.935 128.066,47.525 127.936,47.250 127.821 C 46.975 127.706,46.694 127.596,46.625 127.576 C 46.556 127.557,46.462 127.523,46.417 127.500 C 46.371 127.477,46.277 127.442,46.208 127.423 C 46.140 127.404,45.971 127.342,45.833 127.286 C 45.633 127.203,44.364 126.836,44.000 126.755 C 43.954 126.744,43.550 126.570,43.102 126.367 C 42.653 126.164,42.128 125.963,41.935 125.920 C 41.742 125.877,41.171 125.692,40.667 125.510 C 40.162 125.327,39.596 125.175,39.408 125.172 C 39.220 125.169,38.995 125.101,38.908 125.020 C 38.775 124.897,37.597 124.449,37.333 124.422 C 37.235 124.412,35.729 123.868,35.250 123.669 C 34.731 123.454,33.597 123.039,33.460 123.013 C 33.192 122.964,32.892 122.875,32.333 122.679 C 32.012 122.566,31.300 122.324,30.750 122.140 C 30.200 121.957,29.600 121.744,29.417 121.666 C 29.233 121.589,28.650 121.396,28.120 121.238 C 27.590 121.080,27.117 120.887,27.068 120.809 C 27.020 120.731,26.812 120.667,26.607 120.667 C 26.401 120.667,26.143 120.577,26.033 120.467 C 25.923 120.357,25.833 120.321,25.833 120.388 C 25.833 120.454,25.606 120.391,25.328 120.247 C 25.051 120.104,24.757 120.027,24.676 120.078 C 24.595 120.128,24.503 120.098,24.473 120.011 C 24.442 119.924,24.229 119.818,24.000 119.775 C 23.771 119.732,23.358 119.603,23.083 119.488 C 22.808 119.374,22.527 119.292,22.458 119.306 C 22.318 119.337,22.283 117.106,22.422 116.967 C 22.471 116.918,22.987 117.052,23.570 117.263 C 24.153 117.475,24.676 117.602,24.732 117.546 M152.710 118.491 C 152.655 119.757,152.500 120.497,152.184 121.004 C 152.037 121.239,151.744 121.703,151.534 122.034 C 150.301 123.975,145.544 124.831,144.333 123.329 C 144.287 123.272,144.119 123.177,143.958 123.118 C 143.798 123.059,143.667 122.905,143.667 122.776 C 143.667 122.646,143.566 122.458,143.444 122.356 C 142.777 121.803,143.440 119.534,144.352 119.244 C 144.525 119.189,144.667 119.062,144.667 118.961 C 144.667 118.860,144.710 118.821,144.764 118.875 C 144.817 118.928,145.132 118.858,145.463 118.720 C 145.794 118.582,146.219 118.439,146.408 118.404 C 146.596 118.368,146.975 118.286,147.250 118.221 C 147.525 118.157,147.851 118.123,147.975 118.146 C 148.100 118.170,148.325 118.138,148.475 118.075 C 148.626 118.013,149.125 117.932,149.583 117.895 C 150.042 117.859,150.792 117.765,151.250 117.687 C 152.743 117.432,152.755 117.439,152.710 118.491 M229.333 118.851 C 229.333 119.483,229.264 120.000,229.180 120.000 C 229.096 120.000,228.975 120.233,228.913 120.517 C 228.681 121.574,227.251 123.222,226.376 123.442 C 226.169 123.494,226.000 123.616,226.000 123.713 C 226.000 123.810,225.956 123.845,225.902 123.790 C 225.847 123.736,225.529 123.783,225.193 123.895 C 224.428 124.150,221.833 124.085,221.833 123.811 C 221.833 123.746,221.584 123.610,221.279 123.510 C 219.797 123.020,219.281 120.649,220.439 119.648 C 220.950 119.207,222.220 118.525,222.667 118.452 C 222.896 118.415,223.196 118.342,223.333 118.290 C 223.471 118.237,223.696 118.194,223.833 118.194 C 224.235 118.193,225.898 117.990,226.122 117.915 C 226.236 117.877,226.873 117.797,227.539 117.738 C 228.205 117.679,228.776 117.607,228.808 117.577 C 229.114 117.291,229.333 117.822,229.333 118.851 " stroke="none" fill="#0c639c" fill-rule="evenodd"></path><path id="path2" d="M112.746 100.917 C 112.746 108.800,112.767 112.001,112.792 108.029 C 112.817 104.058,112.817 97.608,112.792 93.696 C 112.767 89.784,112.746 93.033,112.746 100.917 M126.381 87.417 C 126.382 87.875,126.415 88.043,126.453 87.789 C 126.491 87.536,126.490 87.161,126.451 86.956 C 126.411 86.751,126.380 86.958,126.381 87.417 M304.748 108.833 C 304.748 121.071,304.767 126.077,304.792 119.958 C 304.816 113.840,304.816 103.827,304.792 97.708 C 304.767 91.590,304.748 96.596,304.748 108.833 M181.542 99.125 C 185.552 99.150,192.115 99.150,196.125 99.125 C 200.135 99.100,196.854 99.080,188.833 99.080 C 180.813 99.080,177.531 99.100,181.542 99.125 M253.385 99.125 C 254.743 99.153,256.918 99.153,258.219 99.125 C 259.519 99.096,258.408 99.073,255.750 99.074 C 253.092 99.074,252.028 99.097,253.385 99.125 M288.792 99.125 C 290.465 99.152,293.202 99.152,294.875 99.125 C 296.548 99.098,295.179 99.075,291.833 99.075 C 288.487 99.075,287.119 99.098,288.792 99.125 M126.205 108.167 C 126.205 108.487,126.240 108.619,126.282 108.458 C 126.323 108.298,126.323 108.035,126.282 107.875 C 126.240 107.715,126.205 107.846,126.205 108.167 M126.212 111.333 C 126.212 111.746,126.245 111.915,126.284 111.708 C 126.324 111.502,126.324 111.165,126.284 110.958 C 126.245 110.752,126.212 110.921,126.212 111.333 M30.460 110.951 C 30.668 110.991,30.968 110.990,31.127 110.948 C 31.286 110.906,31.117 110.874,30.750 110.875 C 30.383 110.877,30.253 110.911,30.460 110.951 M210.333 129.167 C 210.517 129.350,210.716 129.500,210.776 129.500 C 210.836 129.500,210.749 129.350,210.583 129.167 C 210.417 128.983,210.218 128.833,210.141 128.833 C 210.063 128.833,210.150 128.983,210.333 129.167 " stroke="none" fill="#145c9c" fill-rule="evenodd"></path><path id="path3" d="M50.217 95.500 C 50.217 96.004,50.248 96.210,50.286 95.958 C 50.324 95.706,50.324 95.294,50.286 95.042 C 50.248 94.790,50.217 94.996,50.217 95.500 " stroke="none" fill="#18649c" fill-rule="evenodd"></path><path id="path4" d="M50.217 95.500 C 50.217 96.004,50.248 96.210,50.286 95.958 C 50.324 95.706,50.324 95.294,50.286 95.042 C 50.248 94.790,50.217 94.996,50.217 95.500 " stroke="none" fill="#18649c" fill-rule="evenodd"></path></g></svg>